{
	"asset":{
		"generator":"Khronos glTF Blender I/O v4.5.47",
		"version":"2.0"
	},
	"scene":0,
	"scenes":[
		{
			"name":"Scene",
			"nodes":[
				0
			]
		}
	],
	"nodes":[
		{
			"mesh":0,
			"name":"Background_Graveyard",
			"scale":[
				0.18206018209457397,
				0.18206018209457397,
				0.18206018209457397
			]
		}
	],
	"materials":[
		{
			"doubleSided":true,
			"name":"Background",
			"pbrMetallicRoughness":{
				"baseColorFactor":[
					0.04715516418218613,
					0.04715516418218613,
					0.04715516418218613,
					1
				],
				"metallicFactor":0
			}
		}
	],
	"meshes":[
		{
			"name":"Cube.022",
			"primitives":[
				{
					"attributes":{
						"POSITION":0,
						"NORMAL":1,
						"TEXCOORD_0":2
					},
					"indices":3,
					"material":0
				}
			]
		}
	],
	"accessors":[
		{
			"bufferView":0,
			"componentType":5126,
			"count":21260,
			"max":[
				47.531898498535156,
				5.796757698059082,
				56.78683853149414
			],
			"min":[
				-48.222747802734375,
				-0.16756749153137207,
				-68.46255493164062
			],
			"type":"VEC3"
		},
		{
			"bufferView":1,
			"componentType":5126,
			"count":21260,
			"type":"VEC3"
		},
		{
			"bufferView":2,
			"componentType":5126,
			"count":21260,
			"type":"VEC2"
		},
		{
			"bufferView":3,
			"componentType":5123,
			"count":35214,
			"type":"SCALAR"
		}
	],
	"bufferViews":[
		{
			"buffer":0,
			"byteLength":255120,
			"byteOffset":0,
			"target":34962
		},
		{
			"buffer":0,
			"byteLength":255120,
			"byteOffset":255120,
			"target":34962
		},
		{
			"buffer":0,
			"byteLength":170080,
			"byteOffset":510240,
			"target":34962
		},
		{
			"buffer":0,
			"byteLength":70428,
			"byteOffset":680320,
			"target":34963
		}
	],
	"buffers":[
		{
			"byteLength":750748,
			"uri":"Background_Graveyard.bin"
		}
	]
}
