{
	"asset":{
		"generator":"Khronos glTF Blender I/O v4.5.47",
		"version":"2.0"
	},
	"scene":0,
	"scenes":[
		{
			"name":"Scene",
			"nodes":[
				0
			]
		}
	],
	"nodes":[
		{
			"mesh":0,
			"name":"Background_Graveyard"
		}
	],
	"materials":[
		{
			"doubleSided":true,
			"name":"Background",
			"pbrMetallicRoughness":{
				"baseColorFactor":[
					0.04715516418218613,
					0.04715516418218613,
					0.04715516418218613,
					1
				],
				"metallicFactor":0
			}
		}
	],
	"meshes":[
		{
			"name":"Background_Graveyard-col",
			"primitives":[
				{
					"attributes":{
						"POSITION":0,
						"NORMAL":1,
						"TEXCOORD_0":2
					},
					"indices":3,
					"material":0
				}
			]
		}
	],
	"accessors":[
		{
			"bufferView":0,
			"componentType":5126,
			"count":21266,
			"max":[
				8.653666496276855,
				1.0553587675094604,
				10.338622093200684
			],
			"min":[
				-8.779441833496094,
				-0.030507367104291916,
				-12.46430492401123
			],
			"type":"VEC3"
		},
		{
			"bufferView":1,
			"componentType":5126,
			"count":21266,
			"type":"VEC3"
		},
		{
			"bufferView":2,
			"componentType":5126,
			"count":21266,
			"type":"VEC2"
		},
		{
			"bufferView":3,
			"componentType":5123,
			"count":35214,
			"type":"SCALAR"
		}
	],
	"bufferViews":[
		{
			"buffer":0,
			"byteLength":255192,
			"byteOffset":0,
			"target":34962
		},
		{
			"buffer":0,
			"byteLength":255192,
			"byteOffset":255192,
			"target":34962
		},
		{
			"buffer":0,
			"byteLength":170128,
			"byteOffset":510384,
			"target":34962
		},
		{
			"buffer":0,
			"byteLength":70428,
			"byteOffset":680512,
			"target":34963
		}
	],
	"buffers":[
		{
			"byteLength":750940,
			"uri":"Background_Graveyard.bin"
		}
	]
}
