{
	"asset":{
		"generator":"Khronos glTF Blender I/O v4.5.47",
		"version":"2.0"
	},
	"scene":0,
	"scenes":[
		{
			"name":"Scene",
			"nodes":[
				0
			]
		}
	],
	"nodes":[
		{
			"mesh":0,
			"name":"Background_PalmTree",
			"rotation":[
				-0.40219491720199585,
				0.8405292630195618,
				0.17463822662830353,
				0.31820008158683777
			]
		}
	],
	"materials":[
		{
			"doubleSided":true,
			"name":"Background",
			"pbrMetallicRoughness":{
				"baseColorFactor":[
					0.04715516418218613,
					0.04715516418218613,
					0.04715516418218613,
					1
				],
				"metallicFactor":0
			}
		}
	],
	"meshes":[
		{
			"name":"Background_PalmTree-col",
			"primitives":[
				{
					"attributes":{
						"POSITION":0,
						"NORMAL":1,
						"TEXCOORD_0":2
					},
					"indices":3,
					"material":0
				}
			]
		}
	],
	"accessors":[
		{
			"bufferView":0,
			"componentType":5126,
			"count":535,
			"max":[
				0.09505875408649445,
				4.955784797668457,
				3.10895037651062
			],
			"min":[
				-3.7162058353424072,
				-0.08635368943214417,
				-0.08805529773235321
			],
			"type":"VEC3"
		},
		{
			"bufferView":1,
			"componentType":5126,
			"count":535,
			"type":"VEC3"
		},
		{
			"bufferView":2,
			"componentType":5126,
			"count":535,
			"type":"VEC2"
		},
		{
			"bufferView":3,
			"componentType":5123,
			"count":2052,
			"type":"SCALAR"
		}
	],
	"bufferViews":[
		{
			"buffer":0,
			"byteLength":6420,
			"byteOffset":0,
			"target":34962
		},
		{
			"buffer":0,
			"byteLength":6420,
			"byteOffset":6420,
			"target":34962
		},
		{
			"buffer":0,
			"byteLength":4280,
			"byteOffset":12840,
			"target":34962
		},
		{
			"buffer":0,
			"byteLength":4104,
			"byteOffset":17120,
			"target":34963
		}
	],
	"buffers":[
		{
			"byteLength":21224,
			"uri":"Background_PalmTree.bin"
		}
	]
}
