{
	"asset":{
		"generator":"Khronos glTF Blender I/O v4.5.47",
		"version":"2.0"
	},
	"scene":0,
	"scenes":[
		{
			"name":"Scene",
			"nodes":[
				0
			]
		}
	],
	"nodes":[
		{
			"mesh":0,
			"name":"Background_BeachHouse",
			"rotation":[
				0,
				-1,
				0,
				1.6292068494294654e-07
			]
		}
	],
	"materials":[
		{
			"doubleSided":true,
			"name":"Background",
			"pbrMetallicRoughness":{
				"baseColorFactor":[
					0.04715516418218613,
					0.04715516418218613,
					0.04715516418218613,
					1
				],
				"metallicFactor":0
			}
		}
	],
	"meshes":[
		{
			"name":"Background_BeachHouse-col",
			"primitives":[
				{
					"attributes":{
						"POSITION":0,
						"NORMAL":1,
						"TEXCOORD_0":2
					},
					"indices":3,
					"material":0
				}
			]
		}
	],
	"accessors":[
		{
			"bufferView":0,
			"componentType":5126,
			"count":338,
			"max":[
				8.943584442138672,
				3.999042510986328,
				5.8580708503723145
			],
			"min":[
				-7.453155040740967,
				-0.0009574211435392499,
				-6.649290084838867
			],
			"type":"VEC3"
		},
		{
			"bufferView":1,
			"componentType":5126,
			"count":338,
			"type":"VEC3"
		},
		{
			"bufferView":2,
			"componentType":5126,
			"count":338,
			"type":"VEC2"
		},
		{
			"bufferView":3,
			"componentType":5123,
			"count":600,
			"type":"SCALAR"
		}
	],
	"bufferViews":[
		{
			"buffer":0,
			"byteLength":4056,
			"byteOffset":0,
			"target":34962
		},
		{
			"buffer":0,
			"byteLength":4056,
			"byteOffset":4056,
			"target":34962
		},
		{
			"buffer":0,
			"byteLength":2704,
			"byteOffset":8112,
			"target":34962
		},
		{
			"buffer":0,
			"byteLength":1200,
			"byteOffset":10816,
			"target":34963
		}
	],
	"buffers":[
		{
			"byteLength":12016,
			"uri":"Background_BeachHouse.bin"
		}
	]
}
