{
	"asset":{
		"generator":"Khronos glTF Blender I/O v4.5.47",
		"version":"2.0"
	},
	"scene":0,
	"scenes":[
		{
			"name":"Scene",
			"nodes":[
				7
			]
		}
	],
	"nodes":[
		{
			"mesh":0,
			"name":"BackLeftWheel_Car3",
			"rotation":[
				0,
				0,
				0.7071068286895752,
				0.7071068286895752
			],
			"translation":[
				0.18424765765666962,
				0.5469703078269958,
				-1.3963314294815063
			]
		},
		{
			"mesh":1,
			"name":"BackRightWheel_Car3",
			"rotation":[
				0,
				0,
				0.7071068286895752,
				0.7071068286895752
			],
			"translation":[
				0.18424756824970245,
				-0.5320654511451721,
				-1.3963302373886108
			]
		},
		{
			"mesh":2,
			"name":"Driver3",
			"rotation":[
				0,
				0,
				0.7071068286895752,
				0.7071068286895752
			],
			"translation":[
				-0.4593634009361267,
				0.009266633540391922,
				-0.340695858001709
			]
		},
		{
			"mesh":3,
			"name":"FrontLeftWheel_Car3",
			"rotation":[
				0,
				0,
				0.7071068286895752,
				0.7071068286895752
			],
			"translation":[
				0.18424765765666962,
				0.5820937156677246,
				0.7289012670516968
			]
		},
		{
			"mesh":4,
			"name":"FrontRightWheel.Car3",
			"rotation":[
				0,
				0,
				0.7071068286895752,
				0.7071068286895752
			],
			"translation":[
				0.18424756824970245,
				-0.5803666114807129,
				0.7289005517959595
			]
		},
		{
			"mesh":5,
			"name":"LeftDoor.Car3",
			"rotation":[
				0.7069966793060303,
				0.7069966793060303,
				-0.012476980686187744,
				0.012477378360927105
			],
			"translation":[
				0.0030081712175160646,
				0.5823654532432556,
				0.0902494415640831
			]
		},
		{
			"mesh":6,
			"name":"RightDoor.Car3",
			"rotation":[
				0.02115792967379093,
				-0.02115793153643608,
				0.7067901492118835,
				0.7067902088165283
			],
			"translation":[
				0.00300808297470212,
				-0.5861664414405823,
				0.09024963527917862
			]
		},
		{
			"children":[
				0,
				1,
				2,
				3,
				4,
				5,
				6
			],
			"mesh":7,
			"name":"CarFrame3",
			"rotation":[
				0,
				0,
				-0.7071068286895752,
				0.7071068286895752
			]
		}
	],
	"materials":[
		{
			"doubleSided":true,
			"name":"colormap",
			"pbrMetallicRoughness":{
				"baseColorTexture":{
					"index":0
				},
				"metallicFactor":0,
				"roughnessFactor":0.5
			}
		}
	],
	"meshes":[
		{
			"name":"Cube.013",
			"primitives":[
				{
					"attributes":{
						"POSITION":0,
						"NORMAL":1,
						"TEXCOORD_0":2
					},
					"indices":3,
					"material":0
				}
			]
		},
		{
			"name":"Cube.012",
			"primitives":[
				{
					"attributes":{
						"POSITION":4,
						"NORMAL":5,
						"TEXCOORD_0":6
					},
					"indices":7,
					"material":0
				}
			]
		},
		{
			"name":"Sphere.018",
			"primitives":[
				{
					"attributes":{
						"POSITION":8,
						"NORMAL":9,
						"TEXCOORD_0":10
					},
					"indices":11,
					"material":0
				}
			]
		},
		{
			"name":"Cube.073",
			"primitives":[
				{
					"attributes":{
						"POSITION":12,
						"NORMAL":13,
						"TEXCOORD_0":14
					},
					"indices":3,
					"material":0
				}
			]
		},
		{
			"name":"Cube.069",
			"primitives":[
				{
					"attributes":{
						"POSITION":15,
						"NORMAL":16,
						"TEXCOORD_0":17
					},
					"indices":7,
					"material":0
				}
			]
		},
		{
			"name":"Cube.071",
			"primitives":[
				{
					"attributes":{
						"POSITION":18,
						"NORMAL":19,
						"TEXCOORD_0":20
					},
					"indices":21,
					"material":0
				}
			]
		},
		{
			"name":"Cube.072",
			"primitives":[
				{
					"attributes":{
						"POSITION":22,
						"NORMAL":23,
						"TEXCOORD_0":24
					},
					"indices":21,
					"material":0
				}
			]
		},
		{
			"name":"CarFrame3",
			"primitives":[
				{
					"attributes":{
						"POSITION":25,
						"NORMAL":26,
						"TEXCOORD_0":27
					},
					"indices":28,
					"material":0
				}
			]
		}
	],
	"textures":[
		{
			"sampler":0,
			"source":0
		}
	],
	"images":[
		{
			"mimeType":"image/png",
			"name":"SynthWaveFloorTextures",
			"uri":"Textures/SynthWaveFloorTextures.png"
		}
	],
	"accessors":[
		{
			"bufferView":0,
			"componentType":5126,
			"count":416,
			"max":[
				0.06609005481004715,
				0.22814801335334778,
				0.228147953748703
			],
			"min":[
				-0.09203773736953735,
				-0.22814804315567017,
				-0.22814807295799255
			],
			"type":"VEC3"
		},
		{
			"bufferView":1,
			"componentType":5126,
			"count":416,
			"type":"VEC3"
		},
		{
			"bufferView":2,
			"componentType":5126,
			"count":416,
			"type":"VEC2"
		},
		{
			"bufferView":3,
			"componentType":5123,
			"count":1044,
			"type":"SCALAR"
		},
		{
			"bufferView":4,
			"componentType":5126,
			"count":407,
			"max":[
				0.09203773736953735,
				0.22814801335334778,
				0.228147953748703
			],
			"min":[
				-0.06609005481004715,
				-0.22814804315567017,
				-0.22814807295799255
			],
			"type":"VEC3"
		},
		{
			"bufferView":5,
			"componentType":5126,
			"count":407,
			"type":"VEC3"
		},
		{
			"bufferView":6,
			"componentType":5126,
			"count":407,
			"type":"VEC2"
		},
		{
			"bufferView":7,
			"componentType":5123,
			"count":1044,
			"type":"SCALAR"
		},
		{
			"bufferView":8,
			"componentType":5126,
			"count":1584,
			"max":[
				0.28431254625320435,
				0.13012544810771942,
				0.4187946021556854
			],
			"min":[
				-0.29631826281547546,
				-0.5716531276702881,
				-0.12574586272239685
			],
			"type":"VEC3"
		},
		{
			"bufferView":9,
			"componentType":5126,
			"count":1584,
			"type":"VEC3"
		},
		{
			"bufferView":10,
			"componentType":5126,
			"count":1584,
			"type":"VEC2"
		},
		{
			"bufferView":11,
			"componentType":5123,
			"count":5280,
			"type":"SCALAR"
		},
		{
			"bufferView":12,
			"componentType":5126,
			"count":416,
			"max":[
				0.06609005481004715,
				0.22814801335334778,
				0.228147953748703
			],
			"min":[
				-0.09203773736953735,
				-0.22814804315567017,
				-0.22814807295799255
			],
			"type":"VEC3"
		},
		{
			"bufferView":13,
			"componentType":5126,
			"count":416,
			"type":"VEC3"
		},
		{
			"bufferView":14,
			"componentType":5126,
			"count":416,
			"type":"VEC2"
		},
		{
			"bufferView":15,
			"componentType":5126,
			"count":407,
			"max":[
				0.09203773736953735,
				0.22814801335334778,
				0.228147953748703
			],
			"min":[
				-0.06609005481004715,
				-0.22814804315567017,
				-0.22814807295799255
			],
			"type":"VEC3"
		},
		{
			"bufferView":16,
			"componentType":5126,
			"count":407,
			"type":"VEC3"
		},
		{
			"bufferView":17,
			"componentType":5126,
			"count":407,
			"type":"VEC2"
		},
		{
			"bufferView":18,
			"componentType":5126,
			"count":54,
			"max":[
				0.09981052577495575,
				0.11023444682359695,
				0.576315701007843
			],
			"min":[
				-0.02619081549346447,
				-0.29237493872642517,
				-0.1029139831662178
			],
			"type":"VEC3"
		},
		{
			"bufferView":19,
			"componentType":5126,
			"count":54,
			"type":"VEC3"
		},
		{
			"bufferView":20,
			"componentType":5126,
			"count":54,
			"type":"VEC2"
		},
		{
			"bufferView":21,
			"componentType":5123,
			"count":108,
			"type":"SCALAR"
		},
		{
			"bufferView":22,
			"componentType":5126,
			"count":54,
			"max":[
				0.02619081921875477,
				0.29237493872642517,
				0.102913998067379
			],
			"min":[
				-0.09981054812669754,
				-0.11023444682359695,
				-0.5763158202171326
			],
			"type":"VEC3"
		},
		{
			"bufferView":23,
			"componentType":5126,
			"count":54,
			"type":"VEC3"
		},
		{
			"bufferView":24,
			"componentType":5126,
			"count":54,
			"type":"VEC2"
		},
		{
			"bufferView":25,
			"componentType":5126,
			"count":3815,
			"max":[
				0.281144380569458,
				0.7291725277900696,
				1.373964548110962
			],
			"min":[
				-0.529909074306488,
				-0.7327988743782043,
				-2.0929601192474365
			],
			"type":"VEC3"
		},
		{
			"bufferView":26,
			"componentType":5126,
			"count":3815,
			"type":"VEC3"
		},
		{
			"bufferView":27,
			"componentType":5126,
			"count":3815,
			"type":"VEC2"
		},
		{
			"bufferView":28,
			"componentType":5123,
			"count":8700,
			"type":"SCALAR"
		}
	],
	"bufferViews":[
		{
			"buffer":0,
			"byteLength":4992,
			"byteOffset":0,
			"target":34962
		},
		{
			"buffer":0,
			"byteLength":4992,
			"byteOffset":4992,
			"target":34962
		},
		{
			"buffer":0,
			"byteLength":3328,
			"byteOffset":9984,
			"target":34962
		},
		{
			"buffer":0,
			"byteLength":2088,
			"byteOffset":13312,
			"target":34963
		},
		{
			"buffer":0,
			"byteLength":4884,
			"byteOffset":15400,
			"target":34962
		},
		{
			"buffer":0,
			"byteLength":4884,
			"byteOffset":20284,
			"target":34962
		},
		{
			"buffer":0,
			"byteLength":3256,
			"byteOffset":25168,
			"target":34962
		},
		{
			"buffer":0,
			"byteLength":2088,
			"byteOffset":28424,
			"target":34963
		},
		{
			"buffer":0,
			"byteLength":19008,
			"byteOffset":30512,
			"target":34962
		},
		{
			"buffer":0,
			"byteLength":19008,
			"byteOffset":49520,
			"target":34962
		},
		{
			"buffer":0,
			"byteLength":12672,
			"byteOffset":68528,
			"target":34962
		},
		{
			"buffer":0,
			"byteLength":10560,
			"byteOffset":81200,
			"target":34963
		},
		{
			"buffer":0,
			"byteLength":4992,
			"byteOffset":91760,
			"target":34962
		},
		{
			"buffer":0,
			"byteLength":4992,
			"byteOffset":96752,
			"target":34962
		},
		{
			"buffer":0,
			"byteLength":3328,
			"byteOffset":101744,
			"target":34962
		},
		{
			"buffer":0,
			"byteLength":4884,
			"byteOffset":105072,
			"target":34962
		},
		{
			"buffer":0,
			"byteLength":4884,
			"byteOffset":109956,
			"target":34962
		},
		{
			"buffer":0,
			"byteLength":3256,
			"byteOffset":114840,
			"target":34962
		},
		{
			"buffer":0,
			"byteLength":648,
			"byteOffset":118096,
			"target":34962
		},
		{
			"buffer":0,
			"byteLength":648,
			"byteOffset":118744,
			"target":34962
		},
		{
			"buffer":0,
			"byteLength":432,
			"byteOffset":119392,
			"target":34962
		},
		{
			"buffer":0,
			"byteLength":216,
			"byteOffset":119824,
			"target":34963
		},
		{
			"buffer":0,
			"byteLength":648,
			"byteOffset":120040,
			"target":34962
		},
		{
			"buffer":0,
			"byteLength":648,
			"byteOffset":120688,
			"target":34962
		},
		{
			"buffer":0,
			"byteLength":432,
			"byteOffset":121336,
			"target":34962
		},
		{
			"buffer":0,
			"byteLength":45780,
			"byteOffset":121768,
			"target":34962
		},
		{
			"buffer":0,
			"byteLength":45780,
			"byteOffset":167548,
			"target":34962
		},
		{
			"buffer":0,
			"byteLength":30520,
			"byteOffset":213328,
			"target":34962
		},
		{
			"buffer":0,
			"byteLength":17400,
			"byteOffset":243848,
			"target":34963
		}
	],
	"samplers":[
		{
			"magFilter":9729,
			"minFilter":9987
		}
	],
	"buffers":[
		{
			"byteLength":261248,
			"uri":"CarFrame3.bin"
		}
	]
}
