{
	"asset":{
		"generator":"Khronos glTF Blender I/O v4.5.47",
		"version":"2.0"
	},
	"scene":0,
	"scenes":[
		{
			"name":"Scene",
			"nodes":[
				7
			]
		}
	],
	"nodes":[
		{
			"mesh":0,
			"name":"BackLeftWheel_Car7",
			"rotation":[
				0.7071068286895752,
				-0.7071068286895752,
				0,
				1.152023614281461e-07
			],
			"translation":[
				0.18424753844738007,
				0.529171884059906,
				-1.3893615007400513
			]
		},
		{
			"mesh":1,
			"name":"BackRightWheel_Car7",
			"rotation":[
				0,
				0,
				0.7071068286895752,
				0.7071068286895752
			],
			"translation":[
				0.1842474490404129,
				-0.5482092499732971,
				-1.3893622159957886
			]
		},
		{
			"mesh":2,
			"name":"Driver7",
			"rotation":[
				0,
				0,
				0.7071068286895752,
				0.7071068286895752
			],
			"translation":[
				-0.45936310291290283,
				0.009266156703233719,
				-0.340695858001709
			]
		},
		{
			"mesh":3,
			"name":"FrontLeftWheel.Car7",
			"rotation":[
				0,
				0,
				0.7071068286895752,
				0.7071068286895752
			],
			"translation":[
				0.18424753844738007,
				0.5820956230163574,
				0.7289012670516968
			]
		},
		{
			"mesh":4,
			"name":"FrontRightWheel.Car7",
			"rotation":[
				0,
				0,
				0.7071068286895752,
				0.7071068286895752
			],
			"translation":[
				0.1842474490404129,
				-0.5803666114807129,
				0.7289005517959595
			]
		},
		{
			"mesh":5,
			"name":"LeftDoor.Car7",
			"rotation":[
				0.7069966793060303,
				0.7069966793060303,
				-0.012476980686187744,
				0.012477378360927105
			],
			"translation":[
				0.00300823082216084,
				0.5823649764060974,
				0.0902494415640831
			]
		},
		{
			"mesh":6,
			"name":"RightDoor.Car7",
			"rotation":[
				0.02115792967379093,
				-0.02115793153643608,
				0.7067901492118835,
				0.7067902088165283
			],
			"translation":[
				0.0030081425793468952,
				-0.5861645340919495,
				0.09024963527917862
			]
		},
		{
			"children":[
				0,
				1,
				2,
				3,
				4,
				5,
				6
			],
			"mesh":7,
			"name":"CarFrame7",
			"rotation":[
				0,
				0,
				-0.7071068286895752,
				0.7071068286895752
			]
		}
	],
	"materials":[
		{
			"doubleSided":true,
			"name":"colormap",
			"pbrMetallicRoughness":{
				"baseColorTexture":{
					"index":0
				},
				"metallicFactor":0,
				"roughnessFactor":0.5
			}
		}
	],
	"meshes":[
		{
			"name":"Cube.317",
			"primitives":[
				{
					"attributes":{
						"POSITION":0,
						"NORMAL":1,
						"TEXCOORD_0":2
					},
					"indices":3,
					"material":0
				}
			]
		},
		{
			"name":"Cube.106",
			"primitives":[
				{
					"attributes":{
						"POSITION":4,
						"NORMAL":5,
						"TEXCOORD_0":6
					},
					"indices":3,
					"material":0
				}
			]
		},
		{
			"name":"Sphere.026",
			"primitives":[
				{
					"attributes":{
						"POSITION":7,
						"NORMAL":8,
						"TEXCOORD_0":9
					},
					"indices":10,
					"material":0
				}
			]
		},
		{
			"name":"Cube.105",
			"primitives":[
				{
					"attributes":{
						"POSITION":11,
						"NORMAL":12,
						"TEXCOORD_0":13
					},
					"indices":14,
					"material":0
				}
			]
		},
		{
			"name":"Cube.101",
			"primitives":[
				{
					"attributes":{
						"POSITION":15,
						"NORMAL":16,
						"TEXCOORD_0":17
					},
					"indices":3,
					"material":0
				}
			]
		},
		{
			"name":"Cube.103",
			"primitives":[
				{
					"attributes":{
						"POSITION":18,
						"NORMAL":19,
						"TEXCOORD_0":20
					},
					"indices":21,
					"material":0
				}
			]
		},
		{
			"name":"Cube.104",
			"primitives":[
				{
					"attributes":{
						"POSITION":22,
						"NORMAL":23,
						"TEXCOORD_0":24
					},
					"indices":21,
					"material":0
				}
			]
		},
		{
			"name":"CarFrame7-col",
			"primitives":[
				{
					"attributes":{
						"POSITION":25,
						"NORMAL":26,
						"TEXCOORD_0":27
					},
					"indices":28,
					"material":0
				}
			]
		}
	],
	"textures":[
		{
			"sampler":0,
			"source":0
		}
	],
	"images":[
		{
			"mimeType":"image/png",
			"name":"SynthWaveFloorTextures",
			"uri":"Textures/SynthWaveFloorTextures.png"
		}
	],
	"accessors":[
		{
			"bufferView":0,
			"componentType":5126,
			"count":407,
			"max":[
				0.09203773736953735,
				0.22814787924289703,
				0.228147953748703
			],
			"min":[
				-0.06609005481004715,
				-0.22814790904521942,
				-0.22814807295799255
			],
			"type":"VEC3"
		},
		{
			"bufferView":1,
			"componentType":5126,
			"count":407,
			"type":"VEC3"
		},
		{
			"bufferView":2,
			"componentType":5126,
			"count":407,
			"type":"VEC2"
		},
		{
			"bufferView":3,
			"componentType":5123,
			"count":1044,
			"type":"SCALAR"
		},
		{
			"bufferView":4,
			"componentType":5126,
			"count":407,
			"max":[
				0.09203773736953735,
				0.22814787924289703,
				0.228147953748703
			],
			"min":[
				-0.06609005481004715,
				-0.22814790904521942,
				-0.22814807295799255
			],
			"type":"VEC3"
		},
		{
			"bufferView":5,
			"componentType":5126,
			"count":407,
			"type":"VEC3"
		},
		{
			"bufferView":6,
			"componentType":5126,
			"count":407,
			"type":"VEC2"
		},
		{
			"bufferView":7,
			"componentType":5126,
			"count":1584,
			"max":[
				0.2843152582645416,
				0.13012537360191345,
				0.4187946021556854
			],
			"min":[
				-0.2963155508041382,
				-0.5716527700424194,
				-0.12574586272239685
			],
			"type":"VEC3"
		},
		{
			"bufferView":8,
			"componentType":5126,
			"count":1584,
			"type":"VEC3"
		},
		{
			"bufferView":9,
			"componentType":5126,
			"count":1584,
			"type":"VEC2"
		},
		{
			"bufferView":10,
			"componentType":5123,
			"count":5280,
			"type":"SCALAR"
		},
		{
			"bufferView":11,
			"componentType":5126,
			"count":416,
			"max":[
				0.06609005481004715,
				0.22814787924289703,
				0.228147953748703
			],
			"min":[
				-0.09203773736953735,
				-0.22814790904521942,
				-0.22814807295799255
			],
			"type":"VEC3"
		},
		{
			"bufferView":12,
			"componentType":5126,
			"count":416,
			"type":"VEC3"
		},
		{
			"bufferView":13,
			"componentType":5126,
			"count":416,
			"type":"VEC2"
		},
		{
			"bufferView":14,
			"componentType":5123,
			"count":1044,
			"type":"SCALAR"
		},
		{
			"bufferView":15,
			"componentType":5126,
			"count":407,
			"max":[
				0.09203773736953735,
				0.22814787924289703,
				0.228147953748703
			],
			"min":[
				-0.06609005481004715,
				-0.22814790904521942,
				-0.22814807295799255
			],
			"type":"VEC3"
		},
		{
			"bufferView":16,
			"componentType":5126,
			"count":407,
			"type":"VEC3"
		},
		{
			"bufferView":17,
			"componentType":5126,
			"count":407,
			"type":"VEC2"
		},
		{
			"bufferView":18,
			"componentType":5126,
			"count":54,
			"max":[
				0.09981052577495575,
				0.11023437976837158,
				0.576315701007843
			],
			"min":[
				-0.02619081549346447,
				-0.29237475991249084,
				-0.1029139831662178
			],
			"type":"VEC3"
		},
		{
			"bufferView":19,
			"componentType":5126,
			"count":54,
			"type":"VEC3"
		},
		{
			"bufferView":20,
			"componentType":5126,
			"count":54,
			"type":"VEC2"
		},
		{
			"bufferView":21,
			"componentType":5123,
			"count":108,
			"type":"SCALAR"
		},
		{
			"bufferView":22,
			"componentType":5126,
			"count":54,
			"max":[
				0.02619081921875477,
				0.29237475991249084,
				0.102913998067379
			],
			"min":[
				-0.09981054812669754,
				-0.11023437976837158,
				-0.5763158202171326
			],
			"type":"VEC3"
		},
		{
			"bufferView":23,
			"componentType":5126,
			"count":54,
			"type":"VEC3"
		},
		{
			"bufferView":24,
			"componentType":5126,
			"count":54,
			"type":"VEC2"
		},
		{
			"bufferView":25,
			"componentType":5126,
			"count":3815,
			"max":[
				0.2811442017555237,
				0.7291725277900696,
				1.373964548110962
			],
			"min":[
				-0.5299087762832642,
				-0.7327988743782043,
				-2.0929601192474365
			],
			"type":"VEC3"
		},
		{
			"bufferView":26,
			"componentType":5126,
			"count":3815,
			"type":"VEC3"
		},
		{
			"bufferView":27,
			"componentType":5126,
			"count":3815,
			"type":"VEC2"
		},
		{
			"bufferView":28,
			"componentType":5123,
			"count":8700,
			"type":"SCALAR"
		}
	],
	"bufferViews":[
		{
			"buffer":0,
			"byteLength":4884,
			"byteOffset":0,
			"target":34962
		},
		{
			"buffer":0,
			"byteLength":4884,
			"byteOffset":4884,
			"target":34962
		},
		{
			"buffer":0,
			"byteLength":3256,
			"byteOffset":9768,
			"target":34962
		},
		{
			"buffer":0,
			"byteLength":2088,
			"byteOffset":13024,
			"target":34963
		},
		{
			"buffer":0,
			"byteLength":4884,
			"byteOffset":15112,
			"target":34962
		},
		{
			"buffer":0,
			"byteLength":4884,
			"byteOffset":19996,
			"target":34962
		},
		{
			"buffer":0,
			"byteLength":3256,
			"byteOffset":24880,
			"target":34962
		},
		{
			"buffer":0,
			"byteLength":19008,
			"byteOffset":28136,
			"target":34962
		},
		{
			"buffer":0,
			"byteLength":19008,
			"byteOffset":47144,
			"target":34962
		},
		{
			"buffer":0,
			"byteLength":12672,
			"byteOffset":66152,
			"target":34962
		},
		{
			"buffer":0,
			"byteLength":10560,
			"byteOffset":78824,
			"target":34963
		},
		{
			"buffer":0,
			"byteLength":4992,
			"byteOffset":89384,
			"target":34962
		},
		{
			"buffer":0,
			"byteLength":4992,
			"byteOffset":94376,
			"target":34962
		},
		{
			"buffer":0,
			"byteLength":3328,
			"byteOffset":99368,
			"target":34962
		},
		{
			"buffer":0,
			"byteLength":2088,
			"byteOffset":102696,
			"target":34963
		},
		{
			"buffer":0,
			"byteLength":4884,
			"byteOffset":104784,
			"target":34962
		},
		{
			"buffer":0,
			"byteLength":4884,
			"byteOffset":109668,
			"target":34962
		},
		{
			"buffer":0,
			"byteLength":3256,
			"byteOffset":114552,
			"target":34962
		},
		{
			"buffer":0,
			"byteLength":648,
			"byteOffset":117808,
			"target":34962
		},
		{
			"buffer":0,
			"byteLength":648,
			"byteOffset":118456,
			"target":34962
		},
		{
			"buffer":0,
			"byteLength":432,
			"byteOffset":119104,
			"target":34962
		},
		{
			"buffer":0,
			"byteLength":216,
			"byteOffset":119536,
			"target":34963
		},
		{
			"buffer":0,
			"byteLength":648,
			"byteOffset":119752,
			"target":34962
		},
		{
			"buffer":0,
			"byteLength":648,
			"byteOffset":120400,
			"target":34962
		},
		{
			"buffer":0,
			"byteLength":432,
			"byteOffset":121048,
			"target":34962
		},
		{
			"buffer":0,
			"byteLength":45780,
			"byteOffset":121480,
			"target":34962
		},
		{
			"buffer":0,
			"byteLength":45780,
			"byteOffset":167260,
			"target":34962
		},
		{
			"buffer":0,
			"byteLength":30520,
			"byteOffset":213040,
			"target":34962
		},
		{
			"buffer":0,
			"byteLength":17400,
			"byteOffset":243560,
			"target":34963
		}
	],
	"samplers":[
		{
			"magFilter":9729,
			"minFilter":9987
		}
	],
	"buffers":[
		{
			"byteLength":260960,
			"uri":"CarFrame7.bin"
		}
	]
}
