{
	"asset":{
		"generator":"Khronos glTF Blender I/O v4.5.47",
		"version":"2.0"
	},
	"scene":0,
	"scenes":[
		{
			"name":"Scene",
			"nodes":[
				7
			]
		}
	],
	"nodes":[
		{
			"mesh":0,
			"name":"BackLeftWheel_Car1",
			"rotation":[
				0,
				0,
				0.7071068286895752,
				0.7071068286895752
			],
			"translation":[
				0.36849531531333923,
				1.099878191947937,
				-2.778722047805786
			]
		},
		{
			"mesh":1,
			"name":"BackRightWheel_Car1",
			"rotation":[
				0,
				0,
				0.7071068286895752,
				0.7071068286895752
			],
			"translation":[
				0.3684951364994049,
				-1.0964213609695435,
				-2.7787234783172607
			]
		},
		{
			"mesh":2,
			"name":"Driver1",
			"rotation":[
				0,
				0,
				0.7071068286895752,
				0.7071068286895752
			],
			"translation":[
				-0.9600577354431152,
				-0.02101273648440838,
				-0.6926770210266113
			]
		},
		{
			"mesh":3,
			"name":"FrontLeftWheel_Car1",
			"rotation":[
				0,
				0,
				0.7071068286895752,
				0.7071068286895752
			],
			"translation":[
				0.36849531531333923,
				1.1641874313354492,
				1.4578027725219727
			]
		},
		{
			"mesh":4,
			"name":"FrontRightWheel_Car1",
			"rotation":[
				0,
				0,
				0.7071068286895752,
				0.7071068286895752
			],
			"translation":[
				0.3684951364994049,
				-1.1607370376586914,
				1.457801342010498
			]
		},
		{
			"mesh":5,
			"name":"LeftDoor_Car1",
			"rotation":[
				0.706996738910675,
				0.7069966197013855,
				-0.01247706450521946,
				0.012477293610572815
			],
			"translation":[
				0.006016402039676905,
				1.1647261381149292,
				0.1805010288953781
			]
		},
		{
			"mesh":6,
			"name":"RightDoor_Car1",
			"rotation":[
				0.02115792967379093,
				-0.02115793153643608,
				0.7067901492118835,
				0.7067902088165283
			],
			"translation":[
				0.006016225554049015,
				-1.1723319292068481,
				0.18049950897693634
			]
		},
		{
			"children":[
				0,
				1,
				2,
				3,
				4,
				5,
				6
			],
			"mesh":7,
			"name":"CarFrame1",
			"rotation":[
				0,
				0,
				-0.7071068286895752,
				0.7071068286895752
			]
		}
	],
	"materials":[
		{
			"doubleSided":true,
			"name":"colormap",
			"pbrMetallicRoughness":{
				"baseColorTexture":{
					"index":0
				},
				"metallicFactor":0,
				"roughnessFactor":0.5
			}
		}
	],
	"meshes":[
		{
			"name":"Cube.006",
			"primitives":[
				{
					"attributes":{
						"POSITION":0,
						"NORMAL":1,
						"TEXCOORD_0":2
					},
					"indices":3,
					"material":0
				}
			]
		},
		{
			"name":"Cube.005",
			"primitives":[
				{
					"attributes":{
						"POSITION":4,
						"NORMAL":5,
						"TEXCOORD_0":6
					},
					"indices":7,
					"material":0
				}
			]
		},
		{
			"name":"Sphere.001",
			"primitives":[
				{
					"attributes":{
						"POSITION":8,
						"NORMAL":9,
						"TEXCOORD_0":10
					},
					"indices":11,
					"material":0
				}
			]
		},
		{
			"name":"Cube.004",
			"primitives":[
				{
					"attributes":{
						"POSITION":12,
						"NORMAL":13,
						"TEXCOORD_0":14
					},
					"indices":3,
					"material":0
				}
			]
		},
		{
			"name":"Cube.011",
			"primitives":[
				{
					"attributes":{
						"POSITION":15,
						"NORMAL":16,
						"TEXCOORD_0":17
					},
					"indices":7,
					"material":0
				}
			]
		},
		{
			"name":"Cube.001",
			"primitives":[
				{
					"attributes":{
						"POSITION":18,
						"NORMAL":19,
						"TEXCOORD_0":20
					},
					"indices":21,
					"material":0
				}
			]
		},
		{
			"name":"Cube.003",
			"primitives":[
				{
					"attributes":{
						"POSITION":22,
						"NORMAL":23,
						"TEXCOORD_0":24
					},
					"indices":21,
					"material":0
				}
			]
		},
		{
			"name":"CarFrame1-col",
			"primitives":[
				{
					"attributes":{
						"POSITION":25,
						"NORMAL":26,
						"TEXCOORD_0":27
					},
					"indices":28,
					"material":0
				}
			]
		}
	],
	"textures":[
		{
			"sampler":0,
			"source":0
		}
	],
	"images":[
		{
			"mimeType":"image/png",
			"name":"SynthWaveFloorTextures",
			"uri":"Textures/SynthWaveFloorTextures.png"
		}
	],
	"accessors":[
		{
			"bufferView":0,
			"componentType":5126,
			"count":416,
			"max":[
				0.1321801096200943,
				0.45629602670669556,
				0.456295907497406
			],
			"min":[
				-0.1840754747390747,
				-0.45629608631134033,
				-0.4562961459159851
			],
			"type":"VEC3"
		},
		{
			"bufferView":1,
			"componentType":5126,
			"count":416,
			"type":"VEC3"
		},
		{
			"bufferView":2,
			"componentType":5126,
			"count":416,
			"type":"VEC2"
		},
		{
			"bufferView":3,
			"componentType":5123,
			"count":1044,
			"type":"SCALAR"
		},
		{
			"bufferView":4,
			"componentType":5126,
			"count":407,
			"max":[
				0.1840754747390747,
				0.45629602670669556,
				0.456295907497406
			],
			"min":[
				-0.1321801096200943,
				-0.45629608631134033,
				-0.4562961459159851
			],
			"type":"VEC3"
		},
		{
			"bufferView":5,
			"componentType":5126,
			"count":407,
			"type":"VEC3"
		},
		{
			"bufferView":6,
			"componentType":5126,
			"count":407,
			"type":"VEC2"
		},
		{
			"bufferView":7,
			"componentType":5123,
			"count":1044,
			"type":"SCALAR"
		},
		{
			"bufferView":8,
			"componentType":5126,
			"count":904,
			"max":[
				0.5806313753128052,
				0.16553299129009247,
				0.8940593004226685
			],
			"min":[
				-0.5806303024291992,
				-1.184637188911438,
				-0.206681028008461
			],
			"type":"VEC3"
		},
		{
			"bufferView":9,
			"componentType":5126,
			"count":904,
			"type":"VEC3"
		},
		{
			"bufferView":10,
			"componentType":5126,
			"count":904,
			"type":"VEC2"
		},
		{
			"bufferView":11,
			"componentType":5123,
			"count":3120,
			"type":"SCALAR"
		},
		{
			"bufferView":12,
			"componentType":5126,
			"count":416,
			"max":[
				0.1321801096200943,
				0.45629602670669556,
				0.456295907497406
			],
			"min":[
				-0.1840754747390747,
				-0.45629608631134033,
				-0.4562961459159851
			],
			"type":"VEC3"
		},
		{
			"bufferView":13,
			"componentType":5126,
			"count":416,
			"type":"VEC3"
		},
		{
			"bufferView":14,
			"componentType":5126,
			"count":416,
			"type":"VEC2"
		},
		{
			"bufferView":15,
			"componentType":5126,
			"count":407,
			"max":[
				0.1840754747390747,
				0.45629602670669556,
				0.456295907497406
			],
			"min":[
				-0.1321801096200943,
				-0.45629608631134033,
				-0.4562961459159851
			],
			"type":"VEC3"
		},
		{
			"bufferView":16,
			"componentType":5126,
			"count":407,
			"type":"VEC3"
		},
		{
			"bufferView":17,
			"componentType":5126,
			"count":407,
			"type":"VEC2"
		},
		{
			"bufferView":18,
			"componentType":5126,
			"count":54,
			"max":[
				0.1996210515499115,
				0.2204688936471939,
				1.152631402015686
			],
			"min":[
				-0.05238163098692894,
				-0.5847498774528503,
				-0.2058279663324356
			],
			"type":"VEC3"
		},
		{
			"bufferView":19,
			"componentType":5126,
			"count":54,
			"type":"VEC3"
		},
		{
			"bufferView":20,
			"componentType":5126,
			"count":54,
			"type":"VEC2"
		},
		{
			"bufferView":21,
			"componentType":5123,
			"count":108,
			"type":"SCALAR"
		},
		{
			"bufferView":22,
			"componentType":5126,
			"count":54,
			"max":[
				0.05238163843750954,
				0.5847498774528503,
				0.205827996134758
			],
			"min":[
				-0.19962109625339508,
				-0.2204688936471939,
				-1.1526316404342651
			],
			"type":"VEC3"
		},
		{
			"bufferView":23,
			"componentType":5126,
			"count":54,
			"type":"VEC3"
		},
		{
			"bufferView":24,
			"componentType":5126,
			"count":54,
			"type":"VEC2"
		},
		{
			"bufferView":25,
			"componentType":5126,
			"count":3815,
			"max":[
				0.562288761138916,
				1.4583450555801392,
				2.747929096221924
			],
			"min":[
				-1.059818148612976,
				-1.4655977487564087,
				-4.185920238494873
			],
			"type":"VEC3"
		},
		{
			"bufferView":26,
			"componentType":5126,
			"count":3815,
			"type":"VEC3"
		},
		{
			"bufferView":27,
			"componentType":5126,
			"count":3815,
			"type":"VEC2"
		},
		{
			"bufferView":28,
			"componentType":5123,
			"count":8700,
			"type":"SCALAR"
		}
	],
	"bufferViews":[
		{
			"buffer":0,
			"byteLength":4992,
			"byteOffset":0,
			"target":34962
		},
		{
			"buffer":0,
			"byteLength":4992,
			"byteOffset":4992,
			"target":34962
		},
		{
			"buffer":0,
			"byteLength":3328,
			"byteOffset":9984,
			"target":34962
		},
		{
			"buffer":0,
			"byteLength":2088,
			"byteOffset":13312,
			"target":34963
		},
		{
			"buffer":0,
			"byteLength":4884,
			"byteOffset":15400,
			"target":34962
		},
		{
			"buffer":0,
			"byteLength":4884,
			"byteOffset":20284,
			"target":34962
		},
		{
			"buffer":0,
			"byteLength":3256,
			"byteOffset":25168,
			"target":34962
		},
		{
			"buffer":0,
			"byteLength":2088,
			"byteOffset":28424,
			"target":34963
		},
		{
			"buffer":0,
			"byteLength":10848,
			"byteOffset":30512,
			"target":34962
		},
		{
			"buffer":0,
			"byteLength":10848,
			"byteOffset":41360,
			"target":34962
		},
		{
			"buffer":0,
			"byteLength":7232,
			"byteOffset":52208,
			"target":34962
		},
		{
			"buffer":0,
			"byteLength":6240,
			"byteOffset":59440,
			"target":34963
		},
		{
			"buffer":0,
			"byteLength":4992,
			"byteOffset":65680,
			"target":34962
		},
		{
			"buffer":0,
			"byteLength":4992,
			"byteOffset":70672,
			"target":34962
		},
		{
			"buffer":0,
			"byteLength":3328,
			"byteOffset":75664,
			"target":34962
		},
		{
			"buffer":0,
			"byteLength":4884,
			"byteOffset":78992,
			"target":34962
		},
		{
			"buffer":0,
			"byteLength":4884,
			"byteOffset":83876,
			"target":34962
		},
		{
			"buffer":0,
			"byteLength":3256,
			"byteOffset":88760,
			"target":34962
		},
		{
			"buffer":0,
			"byteLength":648,
			"byteOffset":92016,
			"target":34962
		},
		{
			"buffer":0,
			"byteLength":648,
			"byteOffset":92664,
			"target":34962
		},
		{
			"buffer":0,
			"byteLength":432,
			"byteOffset":93312,
			"target":34962
		},
		{
			"buffer":0,
			"byteLength":216,
			"byteOffset":93744,
			"target":34963
		},
		{
			"buffer":0,
			"byteLength":648,
			"byteOffset":93960,
			"target":34962
		},
		{
			"buffer":0,
			"byteLength":648,
			"byteOffset":94608,
			"target":34962
		},
		{
			"buffer":0,
			"byteLength":432,
			"byteOffset":95256,
			"target":34962
		},
		{
			"buffer":0,
			"byteLength":45780,
			"byteOffset":95688,
			"target":34962
		},
		{
			"buffer":0,
			"byteLength":45780,
			"byteOffset":141468,
			"target":34962
		},
		{
			"buffer":0,
			"byteLength":30520,
			"byteOffset":187248,
			"target":34962
		},
		{
			"buffer":0,
			"byteLength":17400,
			"byteOffset":217768,
			"target":34963
		}
	],
	"samplers":[
		{
			"magFilter":9729,
			"minFilter":9987
		}
	],
	"buffers":[
		{
			"byteLength":235168,
			"uri":"CarFrame1.bin"
		}
	]
}
