{
	"asset":{
		"generator":"Khronos glTF Blender I/O v4.5.47",
		"version":"2.0"
	},
	"scene":0,
	"scenes":[
		{
			"name":"Scene",
			"nodes":[
				7
			]
		}
	],
	"nodes":[
		{
			"mesh":0,
			"name":"BackLeftWheel_Car3",
			"rotation":[
				0.7071068286895752,
				-0.7071068286895752,
				0,
				1.152023614281461e-07
			],
			"translation":[
				0.36849531531333923,
				1.1018236875534058,
				-2.778722047805786
			]
		},
		{
			"mesh":1,
			"name":"BackRightWheel_Car3",
			"rotation":[
				0,
				0,
				0.7071068286895752,
				0.7071068286895752
			],
			"translation":[
				0.3684951364994049,
				-1.0964223146438599,
				-2.7787234783172607
			]
		},
		{
			"mesh":2,
			"name":"Driver3",
			"rotation":[
				0,
				0,
				0.7071068286895752,
				0.7071068286895752
			],
			"translation":[
				-0.9187268018722534,
				0.018533267080783844,
				-0.6813907623291016
			]
		},
		{
			"mesh":3,
			"name":"FrontLeftWheel_Car3",
			"rotation":[
				0,
				0,
				0.7071068286895752,
				0.7071068286895752
			],
			"translation":[
				0.36849531531333923,
				1.1641879081726074,
				1.4578030109405518
			]
		},
		{
			"mesh":4,
			"name":"FrontRightWheel.Car3",
			"rotation":[
				0,
				0,
				0.7071068286895752,
				0.7071068286895752
			],
			"translation":[
				0.3684951364994049,
				-1.160733699798584,
				1.4578015804290771
			]
		},
		{
			"mesh":5,
			"name":"LeftDoor.Car3",
			"rotation":[
				0.706996738910675,
				0.7069966197013855,
				-0.01247706450521946,
				0.012477293610572815
			],
			"translation":[
				0.006016402039676905,
				1.1647309064865112,
				0.1804991215467453
			]
		},
		{
			"mesh":6,
			"name":"RightDoor.Car3",
			"rotation":[
				0.02115792967379093,
				-0.02115793153643608,
				0.7067901492118835,
				0.7067902088165283
			],
			"translation":[
				0.006016225554049015,
				-1.1723328828811646,
				0.18049974739551544
			]
		},
		{
			"children":[
				0,
				1,
				2,
				3,
				4,
				5,
				6
			],
			"mesh":7,
			"name":"CarFrame3",
			"rotation":[
				0,
				0,
				-0.7071068286895752,
				0.7071068286895752
			]
		}
	],
	"materials":[
		{
			"doubleSided":true,
			"name":"colormap",
			"pbrMetallicRoughness":{
				"baseColorTexture":{
					"index":0
				},
				"metallicFactor":0,
				"roughnessFactor":0.5
			}
		}
	],
	"meshes":[
		{
			"name":"Cube.313",
			"primitives":[
				{
					"attributes":{
						"POSITION":0,
						"NORMAL":1,
						"TEXCOORD_0":2
					},
					"indices":3,
					"material":0
				}
			]
		},
		{
			"name":"Cube.074",
			"primitives":[
				{
					"attributes":{
						"POSITION":4,
						"NORMAL":5,
						"TEXCOORD_0":6
					},
					"indices":3,
					"material":0
				}
			]
		},
		{
			"name":"Sphere.018",
			"primitives":[
				{
					"attributes":{
						"POSITION":7,
						"NORMAL":8,
						"TEXCOORD_0":9
					},
					"indices":10,
					"material":0
				}
			]
		},
		{
			"name":"Cube.073",
			"primitives":[
				{
					"attributes":{
						"POSITION":11,
						"NORMAL":12,
						"TEXCOORD_0":13
					},
					"indices":14,
					"material":0
				}
			]
		},
		{
			"name":"Cube.069",
			"primitives":[
				{
					"attributes":{
						"POSITION":15,
						"NORMAL":16,
						"TEXCOORD_0":17
					},
					"indices":3,
					"material":0
				}
			]
		},
		{
			"name":"Cube.071",
			"primitives":[
				{
					"attributes":{
						"POSITION":18,
						"NORMAL":19,
						"TEXCOORD_0":20
					},
					"indices":21,
					"material":0
				}
			]
		},
		{
			"name":"Cube.072",
			"primitives":[
				{
					"attributes":{
						"POSITION":22,
						"NORMAL":23,
						"TEXCOORD_0":24
					},
					"indices":21,
					"material":0
				}
			]
		},
		{
			"name":"CarFrame3-col",
			"primitives":[
				{
					"attributes":{
						"POSITION":25,
						"NORMAL":26,
						"TEXCOORD_0":27
					},
					"indices":28,
					"material":0
				}
			]
		}
	],
	"textures":[
		{
			"sampler":0,
			"source":0
		}
	],
	"images":[
		{
			"mimeType":"image/png",
			"name":"SynthWaveFloorTextures",
			"uri":"Textures/SynthWaveFloorTextures.png"
		}
	],
	"accessors":[
		{
			"bufferView":0,
			"componentType":5126,
			"count":407,
			"max":[
				0.1840754747390747,
				0.45629602670669556,
				0.456295907497406
			],
			"min":[
				-0.1321801096200943,
				-0.45629608631134033,
				-0.4562961459159851
			],
			"type":"VEC3"
		},
		{
			"bufferView":1,
			"componentType":5126,
			"count":407,
			"type":"VEC3"
		},
		{
			"bufferView":2,
			"componentType":5126,
			"count":407,
			"type":"VEC2"
		},
		{
			"bufferView":3,
			"componentType":5123,
			"count":1044,
			"type":"SCALAR"
		},
		{
			"bufferView":4,
			"componentType":5126,
			"count":407,
			"max":[
				0.1840754747390747,
				0.45629602670669556,
				0.456295907497406
			],
			"min":[
				-0.1321801096200943,
				-0.45629608631134033,
				-0.4562961459159851
			],
			"type":"VEC3"
		},
		{
			"bufferView":5,
			"componentType":5126,
			"count":407,
			"type":"VEC3"
		},
		{
			"bufferView":6,
			"componentType":5126,
			"count":407,
			"type":"VEC2"
		},
		{
			"bufferView":7,
			"componentType":5126,
			"count":1584,
			"max":[
				0.5686250925064087,
				0.26025089621543884,
				0.8375892043113708
			],
			"min":[
				-0.5926365256309509,
				-1.1433062553405762,
				-0.2514917254447937
			],
			"type":"VEC3"
		},
		{
			"bufferView":8,
			"componentType":5126,
			"count":1584,
			"type":"VEC3"
		},
		{
			"bufferView":9,
			"componentType":5126,
			"count":1584,
			"type":"VEC2"
		},
		{
			"bufferView":10,
			"componentType":5123,
			"count":5280,
			"type":"SCALAR"
		},
		{
			"bufferView":11,
			"componentType":5126,
			"count":416,
			"max":[
				0.1321801096200943,
				0.45629602670669556,
				0.456295907497406
			],
			"min":[
				-0.1840754747390747,
				-0.45629608631134033,
				-0.4562961459159851
			],
			"type":"VEC3"
		},
		{
			"bufferView":12,
			"componentType":5126,
			"count":416,
			"type":"VEC3"
		},
		{
			"bufferView":13,
			"componentType":5126,
			"count":416,
			"type":"VEC2"
		},
		{
			"bufferView":14,
			"componentType":5123,
			"count":1044,
			"type":"SCALAR"
		},
		{
			"bufferView":15,
			"componentType":5126,
			"count":407,
			"max":[
				0.1840754747390747,
				0.45629602670669556,
				0.456295907497406
			],
			"min":[
				-0.1321801096200943,
				-0.45629608631134033,
				-0.4562961459159851
			],
			"type":"VEC3"
		},
		{
			"bufferView":16,
			"componentType":5126,
			"count":407,
			"type":"VEC3"
		},
		{
			"bufferView":17,
			"componentType":5126,
			"count":407,
			"type":"VEC2"
		},
		{
			"bufferView":18,
			"componentType":5126,
			"count":54,
			"max":[
				0.1996210515499115,
				0.2204688936471939,
				1.152631402015686
			],
			"min":[
				-0.05238163098692894,
				-0.5847498774528503,
				-0.2058279663324356
			],
			"type":"VEC3"
		},
		{
			"bufferView":19,
			"componentType":5126,
			"count":54,
			"type":"VEC3"
		},
		{
			"bufferView":20,
			"componentType":5126,
			"count":54,
			"type":"VEC2"
		},
		{
			"bufferView":21,
			"componentType":5123,
			"count":108,
			"type":"SCALAR"
		},
		{
			"bufferView":22,
			"componentType":5126,
			"count":54,
			"max":[
				0.05238163843750954,
				0.5847498774528503,
				0.205827996134758
			],
			"min":[
				-0.19962109625339508,
				-0.2204688936471939,
				-1.1526316404342651
			],
			"type":"VEC3"
		},
		{
			"bufferView":23,
			"componentType":5126,
			"count":54,
			"type":"VEC3"
		},
		{
			"bufferView":24,
			"componentType":5126,
			"count":54,
			"type":"VEC2"
		},
		{
			"bufferView":25,
			"componentType":5126,
			"count":3815,
			"max":[
				0.562288761138916,
				1.4583450555801392,
				2.747929096221924
			],
			"min":[
				-1.059818148612976,
				-1.4655977487564087,
				-4.185920238494873
			],
			"type":"VEC3"
		},
		{
			"bufferView":26,
			"componentType":5126,
			"count":3815,
			"type":"VEC3"
		},
		{
			"bufferView":27,
			"componentType":5126,
			"count":3815,
			"type":"VEC2"
		},
		{
			"bufferView":28,
			"componentType":5123,
			"count":8700,
			"type":"SCALAR"
		}
	],
	"bufferViews":[
		{
			"buffer":0,
			"byteLength":4884,
			"byteOffset":0,
			"target":34962
		},
		{
			"buffer":0,
			"byteLength":4884,
			"byteOffset":4884,
			"target":34962
		},
		{
			"buffer":0,
			"byteLength":3256,
			"byteOffset":9768,
			"target":34962
		},
		{
			"buffer":0,
			"byteLength":2088,
			"byteOffset":13024,
			"target":34963
		},
		{
			"buffer":0,
			"byteLength":4884,
			"byteOffset":15112,
			"target":34962
		},
		{
			"buffer":0,
			"byteLength":4884,
			"byteOffset":19996,
			"target":34962
		},
		{
			"buffer":0,
			"byteLength":3256,
			"byteOffset":24880,
			"target":34962
		},
		{
			"buffer":0,
			"byteLength":19008,
			"byteOffset":28136,
			"target":34962
		},
		{
			"buffer":0,
			"byteLength":19008,
			"byteOffset":47144,
			"target":34962
		},
		{
			"buffer":0,
			"byteLength":12672,
			"byteOffset":66152,
			"target":34962
		},
		{
			"buffer":0,
			"byteLength":10560,
			"byteOffset":78824,
			"target":34963
		},
		{
			"buffer":0,
			"byteLength":4992,
			"byteOffset":89384,
			"target":34962
		},
		{
			"buffer":0,
			"byteLength":4992,
			"byteOffset":94376,
			"target":34962
		},
		{
			"buffer":0,
			"byteLength":3328,
			"byteOffset":99368,
			"target":34962
		},
		{
			"buffer":0,
			"byteLength":2088,
			"byteOffset":102696,
			"target":34963
		},
		{
			"buffer":0,
			"byteLength":4884,
			"byteOffset":104784,
			"target":34962
		},
		{
			"buffer":0,
			"byteLength":4884,
			"byteOffset":109668,
			"target":34962
		},
		{
			"buffer":0,
			"byteLength":3256,
			"byteOffset":114552,
			"target":34962
		},
		{
			"buffer":0,
			"byteLength":648,
			"byteOffset":117808,
			"target":34962
		},
		{
			"buffer":0,
			"byteLength":648,
			"byteOffset":118456,
			"target":34962
		},
		{
			"buffer":0,
			"byteLength":432,
			"byteOffset":119104,
			"target":34962
		},
		{
			"buffer":0,
			"byteLength":216,
			"byteOffset":119536,
			"target":34963
		},
		{
			"buffer":0,
			"byteLength":648,
			"byteOffset":119752,
			"target":34962
		},
		{
			"buffer":0,
			"byteLength":648,
			"byteOffset":120400,
			"target":34962
		},
		{
			"buffer":0,
			"byteLength":432,
			"byteOffset":121048,
			"target":34962
		},
		{
			"buffer":0,
			"byteLength":45780,
			"byteOffset":121480,
			"target":34962
		},
		{
			"buffer":0,
			"byteLength":45780,
			"byteOffset":167260,
			"target":34962
		},
		{
			"buffer":0,
			"byteLength":30520,
			"byteOffset":213040,
			"target":34962
		},
		{
			"buffer":0,
			"byteLength":17400,
			"byteOffset":243560,
			"target":34963
		}
	],
	"samplers":[
		{
			"magFilter":9729,
			"minFilter":9987
		}
	],
	"buffers":[
		{
			"byteLength":260960,
			"uri":"CarFrame3.bin"
		}
	]
}
