{
	"asset":{
		"generator":"Khronos glTF Blender I/O v4.5.47",
		"version":"2.0"
	},
	"scene":0,
	"scenes":[
		{
			"name":"Scene",
			"nodes":[
				7
			]
		}
	],
	"nodes":[
		{
			"mesh":0,
			"name":"BackLeftWheel_Car5",
			"rotation":[
				0.7071068286895752,
				-0.7071068286895752,
				0,
				1.1520240406071025e-07
			],
			"scale":[
				0.1780407875776291,
				0.1780407875776291,
				0.1780407875776291
			],
			"translation":[
				0.28648650646209717,
				0.8212264776229858,
				-2.160315990447998
			]
		},
		{
			"mesh":1,
			"name":"BackRightWheel_Car5",
			"rotation":[
				0,
				0,
				0.7071068286895752,
				0.7071068286895752
			],
			"scale":[
				0.1780407875776291,
				0.1780407875776291,
				0.1780407875776291
			],
			"translation":[
				0.2864863872528076,
				-0.8524130582809448,
				-2.1603169441223145
			]
		},
		{
			"mesh":2,
			"name":"Driver5",
			"rotation":[
				0,
				0,
				0.7071068286895752,
				0.7071068286895752
			],
			"scale":[
				0.1575908362865448,
				0.15161922574043274,
				0.16398297250270844
			],
			"translation":[
				-0.7142635583877563,
				0.014408424496650696,
				-0.5297467708587646
			]
		},
		{
			"mesh":3,
			"name":"FrontLeftWheel.Car5",
			"rotation":[
				0,
				0,
				0.7071068286895752,
				0.7071068286895752
			],
			"scale":[
				0.1780407875776291,
				0.1780407875776291,
				0.1780407875776291
			],
			"translation":[
				0.28648650646209717,
				0.9050971269607544,
				1.1333682537078857
			]
		},
		{
			"mesh":4,
			"name":"FrontRightWheel.Car5",
			"rotation":[
				0,
				0,
				0.7071068286895752,
				0.7071068286895752
			],
			"scale":[
				0.1780407875776291,
				0.1780407875776291,
				0.1780407875776291
			],
			"translation":[
				0.2864863872528076,
				-0.9024152755737305,
				1.1333670616149902
			]
		},
		{
			"mesh":5,
			"name":"LeftDoor.Car5",
			"rotation":[
				0.706996738910675,
				0.7069966197013855,
				-0.012477179989218712,
				0.012477177195250988
			],
			"scale":[
				-0.0911802127957344,
				-0.1677035391330719,
				-0.15873673558235168
			],
			"translation":[
				0.004677490796893835,
				0.9055159091949463,
				0.1403290331363678
			]
		},
		{
			"mesh":6,
			"name":"RightDoor.Car5",
			"rotation":[
				0.02115792967379093,
				-0.02115792967379093,
				0.7067901492118835,
				0.7067902088165283
			],
			"scale":[
				0.0911802351474762,
				0.1677035391330719,
				0.15873676538467407
			],
			"translation":[
				0.004677353426814079,
				-0.9114295244216919,
				0.1403294801712036
			]
		},
		{
			"children":[
				0,
				1,
				2,
				3,
				4,
				5,
				6
			],
			"mesh":7,
			"name":"CarFrame5",
			"rotation":[
				0,
				0,
				-0.7071068286895752,
				0.7071068286895752
			],
			"scale":[
				0.2896496057510376,
				0.2896496057510376,
				0.2896496057510376
			]
		}
	],
	"materials":[
		{
			"doubleSided":true,
			"name":"colormap",
			"pbrMetallicRoughness":{
				"baseColorTexture":{
					"index":0
				},
				"metallicFactor":0,
				"roughnessFactor":0.5
			}
		}
	],
	"meshes":[
		{
			"name":"Cube.315",
			"primitives":[
				{
					"attributes":{
						"POSITION":0,
						"NORMAL":1,
						"TEXCOORD_0":2
					},
					"indices":3,
					"material":0
				}
			]
		},
		{
			"name":"Cube.090",
			"primitives":[
				{
					"attributes":{
						"POSITION":4,
						"NORMAL":5,
						"TEXCOORD_0":6
					},
					"indices":3,
					"material":0
				}
			]
		},
		{
			"name":"Sphere.022",
			"primitives":[
				{
					"attributes":{
						"POSITION":7,
						"NORMAL":8,
						"TEXCOORD_0":9
					},
					"indices":10,
					"material":0
				}
			]
		},
		{
			"name":"Cube.089",
			"primitives":[
				{
					"attributes":{
						"POSITION":11,
						"NORMAL":12,
						"TEXCOORD_0":13
					},
					"indices":14,
					"material":0
				}
			]
		},
		{
			"name":"Cube.085",
			"primitives":[
				{
					"attributes":{
						"POSITION":15,
						"NORMAL":16,
						"TEXCOORD_0":17
					},
					"indices":3,
					"material":0
				}
			]
		},
		{
			"name":"Cube.087",
			"primitives":[
				{
					"attributes":{
						"POSITION":18,
						"NORMAL":19,
						"TEXCOORD_0":20
					},
					"indices":21,
					"material":0
				}
			]
		},
		{
			"name":"Cube.088",
			"primitives":[
				{
					"attributes":{
						"POSITION":22,
						"NORMAL":23,
						"TEXCOORD_0":24
					},
					"indices":21,
					"material":0
				}
			]
		},
		{
			"name":"Cube.086",
			"primitives":[
				{
					"attributes":{
						"POSITION":25,
						"NORMAL":26,
						"TEXCOORD_0":27
					},
					"indices":28,
					"material":0
				}
			]
		}
	],
	"textures":[
		{
			"sampler":0,
			"source":0
		}
	],
	"images":[
		{
			"mimeType":"image/png",
			"name":"SynthWaveFloorTextures",
			"uri":"Textures/SynthWaveFloorTextures.png"
		}
	],
	"accessors":[
		{
			"bufferView":0,
			"componentType":5126,
			"count":407,
			"max":[
				0.8038010597229004,
				1.992504596710205,
				1.9925041198730469
			],
			"min":[
				-0.5771899223327637,
				-1.9925048351287842,
				-1.9925050735473633
			],
			"type":"VEC3"
		},
		{
			"bufferView":1,
			"componentType":5126,
			"count":407,
			"type":"VEC3"
		},
		{
			"bufferView":2,
			"componentType":5126,
			"count":407,
			"type":"VEC2"
		},
		{
			"bufferView":3,
			"componentType":5123,
			"count":1044,
			"type":"SCALAR"
		},
		{
			"bufferView":4,
			"componentType":5126,
			"count":407,
			"max":[
				0.8038010597229004,
				1.992504596710205,
				1.9925041198730469
			],
			"min":[
				-0.5771899223327637,
				-1.9925048351287842,
				-1.9925050735473633
			],
			"type":"VEC3"
		},
		{
			"bufferView":5,
			"componentType":5126,
			"count":407,
			"type":"VEC3"
		},
		{
			"bufferView":6,
			"componentType":5126,
			"count":407,
			"type":"VEC2"
		},
		{
			"bufferView":7,
			"componentType":5126,
			"count":1584,
			"max":[
				2.805220127105713,
				1.3344738483428955,
				3.9710421562194824
			],
			"min":[
				-2.923680305480957,
				-5.862467288970947,
				-1.1923317909240723
			],
			"type":"VEC3"
		},
		{
			"bufferView":8,
			"componentType":5126,
			"count":1584,
			"type":"VEC3"
		},
		{
			"bufferView":9,
			"componentType":5126,
			"count":1584,
			"type":"VEC2"
		},
		{
			"bufferView":10,
			"componentType":5123,
			"count":5280,
			"type":"SCALAR"
		},
		{
			"bufferView":11,
			"componentType":5126,
			"count":416,
			"max":[
				0.5771899223327637,
				1.992504596710205,
				1.9925041198730469
			],
			"min":[
				-0.8038010597229004,
				-1.9925048351287842,
				-1.9925050735473633
			],
			"type":"VEC3"
		},
		{
			"bufferView":12,
			"componentType":5126,
			"count":416,
			"type":"VEC3"
		},
		{
			"bufferView":13,
			"componentType":5126,
			"count":416,
			"type":"VEC2"
		},
		{
			"bufferView":14,
			"componentType":5123,
			"count":1044,
			"type":"SCALAR"
		},
		{
			"bufferView":15,
			"componentType":5126,
			"count":407,
			"max":[
				0.8038010597229004,
				1.992504596710205,
				1.9925041198730469
			],
			"min":[
				-0.5771899223327637,
				-1.9925048351287842,
				-1.9925050735473633
			],
			"type":"VEC3"
		},
		{
			"bufferView":16,
			"componentType":5126,
			"count":407,
			"type":"VEC3"
		},
		{
			"bufferView":17,
			"componentType":5126,
			"count":407,
			"type":"VEC2"
		},
		{
			"bufferView":18,
			"componentType":5126,
			"count":54,
			"max":[
				0.4466327428817749,
				2.710815906524658,
				1.008089542388916
			],
			"min":[
				-1.7020719051361084,
				-1.0220619440078735,
				-5.645276069641113
			],
			"type":"VEC3"
		},
		{
			"bufferView":19,
			"componentType":5126,
			"count":54,
			"type":"VEC3"
		},
		{
			"bufferView":20,
			"componentType":5126,
			"count":54,
			"type":"VEC2"
		},
		{
			"bufferView":21,
			"componentType":5123,
			"count":108,
			"type":"SCALAR"
		},
		{
			"bufferView":22,
			"componentType":5126,
			"count":54,
			"max":[
				0.4466327428817749,
				2.710815906524658,
				1.008089542388916
			],
			"min":[
				-1.7020719051361084,
				-1.0220619440078735,
				-5.645276069641113
			],
			"type":"VEC3"
		},
		{
			"bufferView":23,
			"componentType":5126,
			"count":54,
			"type":"VEC3"
		},
		{
			"bufferView":24,
			"componentType":5126,
			"count":54,
			"type":"VEC2"
		},
		{
			"bufferView":25,
			"componentType":5126,
			"count":3650,
			"max":[
				0.43715113401412964,
				1.1337896585464478,
				2.136376142501831
			],
			"min":[
				-0.8239551186561584,
				-1.1394282579421997,
				-3.2543416023254395
			],
			"type":"VEC3"
		},
		{
			"bufferView":26,
			"componentType":5126,
			"count":3650,
			"type":"VEC3"
		},
		{
			"bufferView":27,
			"componentType":5126,
			"count":3650,
			"type":"VEC2"
		},
		{
			"bufferView":28,
			"componentType":5123,
			"count":8700,
			"type":"SCALAR"
		}
	],
	"bufferViews":[
		{
			"buffer":0,
			"byteLength":4884,
			"byteOffset":0,
			"target":34962
		},
		{
			"buffer":0,
			"byteLength":4884,
			"byteOffset":4884,
			"target":34962
		},
		{
			"buffer":0,
			"byteLength":3256,
			"byteOffset":9768,
			"target":34962
		},
		{
			"buffer":0,
			"byteLength":2088,
			"byteOffset":13024,
			"target":34963
		},
		{
			"buffer":0,
			"byteLength":4884,
			"byteOffset":15112,
			"target":34962
		},
		{
			"buffer":0,
			"byteLength":4884,
			"byteOffset":19996,
			"target":34962
		},
		{
			"buffer":0,
			"byteLength":3256,
			"byteOffset":24880,
			"target":34962
		},
		{
			"buffer":0,
			"byteLength":19008,
			"byteOffset":28136,
			"target":34962
		},
		{
			"buffer":0,
			"byteLength":19008,
			"byteOffset":47144,
			"target":34962
		},
		{
			"buffer":0,
			"byteLength":12672,
			"byteOffset":66152,
			"target":34962
		},
		{
			"buffer":0,
			"byteLength":10560,
			"byteOffset":78824,
			"target":34963
		},
		{
			"buffer":0,
			"byteLength":4992,
			"byteOffset":89384,
			"target":34962
		},
		{
			"buffer":0,
			"byteLength":4992,
			"byteOffset":94376,
			"target":34962
		},
		{
			"buffer":0,
			"byteLength":3328,
			"byteOffset":99368,
			"target":34962
		},
		{
			"buffer":0,
			"byteLength":2088,
			"byteOffset":102696,
			"target":34963
		},
		{
			"buffer":0,
			"byteLength":4884,
			"byteOffset":104784,
			"target":34962
		},
		{
			"buffer":0,
			"byteLength":4884,
			"byteOffset":109668,
			"target":34962
		},
		{
			"buffer":0,
			"byteLength":3256,
			"byteOffset":114552,
			"target":34962
		},
		{
			"buffer":0,
			"byteLength":648,
			"byteOffset":117808,
			"target":34962
		},
		{
			"buffer":0,
			"byteLength":648,
			"byteOffset":118456,
			"target":34962
		},
		{
			"buffer":0,
			"byteLength":432,
			"byteOffset":119104,
			"target":34962
		},
		{
			"buffer":0,
			"byteLength":216,
			"byteOffset":119536,
			"target":34963
		},
		{
			"buffer":0,
			"byteLength":648,
			"byteOffset":119752,
			"target":34962
		},
		{
			"buffer":0,
			"byteLength":648,
			"byteOffset":120400,
			"target":34962
		},
		{
			"buffer":0,
			"byteLength":432,
			"byteOffset":121048,
			"target":34962
		},
		{
			"buffer":0,
			"byteLength":43800,
			"byteOffset":121480,
			"target":34962
		},
		{
			"buffer":0,
			"byteLength":43800,
			"byteOffset":165280,
			"target":34962
		},
		{
			"buffer":0,
			"byteLength":29200,
			"byteOffset":209080,
			"target":34962
		},
		{
			"buffer":0,
			"byteLength":17400,
			"byteOffset":238280,
			"target":34963
		}
	],
	"samplers":[
		{
			"magFilter":9729,
			"minFilter":9987
		}
	],
	"buffers":[
		{
			"byteLength":255680,
			"uri":"CarFrame5.bin"
		}
	]
}
