{
	"asset":{
		"generator":"Khronos glTF Blender I/O v4.5.47",
		"version":"2.0"
	},
	"scene":0,
	"scenes":[
		{
			"name":"Scene",
			"nodes":[
				0
			]
		}
	],
	"nodes":[
		{
			"mesh":0,
			"name":"Driftsmoke",
			"scale":[
				0.08025823533535004,
				0.08025823533535004,
				0.08025823533535004
			]
		}
	],
	"meshes":[
		{
			"name":"Sphere.002",
			"primitives":[
				{
					"attributes":{
						"POSITION":0,
						"NORMAL":1,
						"TEXCOORD_0":2
					},
					"indices":3
				}
			]
		}
	],
	"accessors":[
		{
			"bufferView":0,
			"componentType":5126,
			"count":705,
			"max":[
				1.384537935256958,
				1.0095748901367188,
				1.1085774898529053
			],
			"min":[
				-1.3174360990524292,
				-1.176723599433899,
				-1.4247384071350098
			],
			"type":"VEC3"
		},
		{
			"bufferView":1,
			"componentType":5126,
			"count":705,
			"type":"VEC3"
		},
		{
			"bufferView":2,
			"componentType":5126,
			"count":705,
			"type":"VEC2"
		},
		{
			"bufferView":3,
			"componentType":5123,
			"count":2880,
			"type":"SCALAR"
		}
	],
	"bufferViews":[
		{
			"buffer":0,
			"byteLength":8460,
			"byteOffset":0,
			"target":34962
		},
		{
			"buffer":0,
			"byteLength":8460,
			"byteOffset":8460,
			"target":34962
		},
		{
			"buffer":0,
			"byteLength":5640,
			"byteOffset":16920,
			"target":34962
		},
		{
			"buffer":0,
			"byteLength":5760,
			"byteOffset":22560,
			"target":34963
		}
	],
	"buffers":[
		{
			"byteLength":28320,
			"uri":"Driftsmoke.bin"
		}
	]
}
