{
	"asset":{
		"generator":"Khronos glTF Blender I/O v4.5.47",
		"version":"2.0"
	},
	"extensionsUsed":[
		"KHR_materials_specular"
	],
	"scene":0,
	"scenes":[
		{
			"name":"Scene",
			"nodes":[
				0
			]
		}
	],
	"nodes":[
		{
			"mesh":0,
			"name":"roadCornerLarger",
			"rotation":[
				0.7071068286895752,
				0,
				0,
				0.7071068286895752
			],
			"scale":[
				14.999844551086426,
				14.699844360351562,
				10
			]
		}
	],
	"materials":[
		{
			"doubleSided":true,
			"extensions":{
				"KHR_materials_specular":{
					"specularColorFactor":[
						0.4000000059604645,
						0.4000000059604645,
						0.4000000059604645
					]
				}
			},
			"name":"Curb",
			"pbrMetallicRoughness":{
				"baseColorFactor":[
					0.9450979828834534,
					0.9490196108818054,
					0.9647058844566345,
					1
				],
				"metallicFactor":0,
				"roughnessFactor":0.5527864098548889
			}
		},
		{
			"doubleSided":true,
			"extensions":{
				"KHR_materials_specular":{
					"specularColorFactor":[
						0.4000000059604645,
						0.4000000059604645,
						0.4000000059604645
					]
				}
			},
			"name":"PinkGrass",
			"pbrMetallicRoughness":{
				"baseColorFactor":[
					0.4019641876220703,
					0.007295854389667511,
					0.26789525151252747,
					1
				],
				"metallicFactor":0,
				"roughnessFactor":0.5527864098548889
			}
		},
		{
			"doubleSided":true,
			"extensions":{
				"KHR_materials_specular":{
					"specularColorFactor":[
						0.4000000059604645,
						0.4000000059604645,
						0.4000000059604645
					]
				}
			},
			"name":"Road",
			"pbrMetallicRoughness":{
				"baseColorFactor":[
					0.2663537561893463,
					0.26635587215423584,
					0.2663556933403015,
					1
				],
				"metallicFactor":0
			}
		}
	],
	"meshes":[
		{
			"name":"roadCornerLarger",
			"primitives":[
				{
					"attributes":{
						"POSITION":0,
						"NORMAL":1,
						"TEXCOORD_0":2
					},
					"indices":3,
					"material":0
				},
				{
					"attributes":{
						"POSITION":4,
						"NORMAL":5,
						"TEXCOORD_0":6
					},
					"indices":7,
					"material":1
				},
				{
					"attributes":{
						"POSITION":8,
						"NORMAL":9,
						"TEXCOORD_0":10
					},
					"indices":11,
					"material":2
				}
			]
		}
	],
	"accessors":[
		{
			"bufferView":0,
			"componentType":5126,
			"count":104,
			"max":[
				-0.08165261149406433,
				2.918346881866455,
				0
			],
			"min":[
				-3,
				0,
				-0.019999999552965164
			],
			"type":"VEC3"
		},
		{
			"bufferView":1,
			"componentType":5126,
			"count":104,
			"type":"VEC3"
		},
		{
			"bufferView":2,
			"componentType":5126,
			"count":104,
			"type":"VEC2"
		},
		{
			"bufferView":3,
			"componentType":5123,
			"count":432,
			"type":"SCALAR"
		},
		{
			"bufferView":4,
			"componentType":5126,
			"count":52,
			"max":[
				0,
				3,
				0
			],
			"min":[
				-3,
				0,
				0
			],
			"type":"VEC3"
		},
		{
			"bufferView":5,
			"componentType":5126,
			"count":52,
			"type":"VEC3"
		},
		{
			"bufferView":6,
			"componentType":5126,
			"count":52,
			"type":"VEC2"
		},
		{
			"bufferView":7,
			"componentType":5123,
			"count":144,
			"type":"SCALAR"
		},
		{
			"bufferView":8,
			"componentType":5126,
			"count":26,
			"max":[
				-0.15486490726470947,
				2.845134973526001,
				-0.009999999776482582
			],
			"min":[
				-3,
				0,
				-0.009999999776482582
			],
			"type":"VEC3"
		},
		{
			"bufferView":9,
			"componentType":5126,
			"count":26,
			"type":"VEC3"
		},
		{
			"bufferView":10,
			"componentType":5126,
			"count":26,
			"type":"VEC2"
		},
		{
			"bufferView":11,
			"componentType":5123,
			"count":72,
			"type":"SCALAR"
		}
	],
	"bufferViews":[
		{
			"buffer":0,
			"byteLength":1248,
			"byteOffset":0,
			"target":34962
		},
		{
			"buffer":0,
			"byteLength":1248,
			"byteOffset":1248,
			"target":34962
		},
		{
			"buffer":0,
			"byteLength":832,
			"byteOffset":2496,
			"target":34962
		},
		{
			"buffer":0,
			"byteLength":864,
			"byteOffset":3328,
			"target":34963
		},
		{
			"buffer":0,
			"byteLength":624,
			"byteOffset":4192,
			"target":34962
		},
		{
			"buffer":0,
			"byteLength":624,
			"byteOffset":4816,
			"target":34962
		},
		{
			"buffer":0,
			"byteLength":416,
			"byteOffset":5440,
			"target":34962
		},
		{
			"buffer":0,
			"byteLength":288,
			"byteOffset":5856,
			"target":34963
		},
		{
			"buffer":0,
			"byteLength":312,
			"byteOffset":6144,
			"target":34962
		},
		{
			"buffer":0,
			"byteLength":312,
			"byteOffset":6456,
			"target":34962
		},
		{
			"buffer":0,
			"byteLength":208,
			"byteOffset":6768,
			"target":34962
		},
		{
			"buffer":0,
			"byteLength":144,
			"byteOffset":6976,
			"target":34963
		}
	],
	"buffers":[
		{
			"byteLength":7120,
			"uri":"roadCornerLarger.bin"
		}
	]
}
