{
	"asset":{
		"generator":"Khronos glTF Blender I/O v4.5.47",
		"version":"2.0"
	},
	"extensionsUsed":[
		"KHR_materials_specular"
	],
	"scene":0,
	"scenes":[
		{
			"name":"Scene",
			"nodes":[
				0
			]
		}
	],
	"nodes":[
		{
			"mesh":0,
			"name":"roadStraightBridge",
			"rotation":[
				0.7071068286895752,
				0,
				0,
				0.7071068286895752
			],
			"scale":[
				1.5,
				1.5,
				1
			]
		}
	],
	"materials":[
		{
			"doubleSided":true,
			"extensions":{
				"KHR_materials_specular":{
					"specularColorFactor":[
						0.4000000059604645,
						0.4000000059604645,
						0.4000000059604645
					]
				}
			},
			"name":"PinkGrass",
			"pbrMetallicRoughness":{
				"baseColorFactor":[
					0.4019641876220703,
					0.007295854389667511,
					0.26789525151252747,
					1
				],
				"metallicFactor":0,
				"roughnessFactor":0.5527864098548889
			}
		},
		{
			"doubleSided":true,
			"extensions":{
				"KHR_materials_specular":{
					"specularColorFactor":[
						0.4000000059604645,
						0.4000000059604645,
						0.4000000059604645
					]
				}
			},
			"name":"Curb",
			"pbrMetallicRoughness":{
				"baseColorFactor":[
					0.9450979828834534,
					0.9490196108818054,
					0.9647058844566345,
					1
				],
				"metallicFactor":0,
				"roughnessFactor":0.5527864098548889
			}
		},
		{
			"doubleSided":true,
			"extensions":{
				"KHR_materials_specular":{
					"specularColorFactor":[
						0.4000000059604645,
						0.4000000059604645,
						0.4000000059604645
					]
				}
			},
			"name":"Road",
			"pbrMetallicRoughness":{
				"baseColorFactor":[
					0.2663537561893463,
					0.26635587215423584,
					0.2663556933403015,
					1
				],
				"metallicFactor":0
			}
		}
	],
	"meshes":[
		{
			"name":"Mesh.047",
			"primitives":[
				{
					"attributes":{
						"POSITION":0,
						"NORMAL":1,
						"TEXCOORD_0":2
					},
					"indices":3,
					"material":0
				},
				{
					"attributes":{
						"POSITION":4,
						"NORMAL":5,
						"TEXCOORD_0":6
					},
					"indices":7,
					"material":1
				},
				{
					"attributes":{
						"POSITION":8,
						"NORMAL":9,
						"TEXCOORD_0":10
					},
					"indices":11,
					"material":2
				}
			]
		}
	],
	"accessors":[
		{
			"bufferView":0,
			"componentType":5126,
			"count":40,
			"max":[
				0,
				10,
				0
			],
			"min":[
				-10,
				0,
				-5.199999809265137
			],
			"type":"VEC3"
		},
		{
			"bufferView":1,
			"componentType":5126,
			"count":40,
			"type":"VEC3"
		},
		{
			"bufferView":2,
			"componentType":5126,
			"count":40,
			"type":"VEC2"
		},
		{
			"bufferView":3,
			"componentType":5123,
			"count":84,
			"type":"SCALAR"
		},
		{
			"bufferView":4,
			"componentType":5126,
			"count":24,
			"max":[
				-0.8165261745452881,
				10,
				-5
			],
			"min":[
				-9.183472633361816,
				0,
				-5.199999809265137
			],
			"type":"VEC3"
		},
		{
			"bufferView":5,
			"componentType":5126,
			"count":24,
			"type":"VEC3"
		},
		{
			"bufferView":6,
			"componentType":5126,
			"count":24,
			"type":"VEC2"
		},
		{
			"bufferView":7,
			"componentType":5123,
			"count":36,
			"type":"SCALAR"
		},
		{
			"bufferView":8,
			"componentType":5126,
			"count":10,
			"max":[
				0,
				10,
				0
			],
			"min":[
				-10,
				0,
				-5.099999904632568
			],
			"type":"VEC3"
		},
		{
			"bufferView":9,
			"componentType":5126,
			"count":10,
			"type":"VEC3"
		},
		{
			"bufferView":10,
			"componentType":5126,
			"count":10,
			"type":"VEC2"
		},
		{
			"bufferView":11,
			"componentType":5123,
			"count":12,
			"type":"SCALAR"
		}
	],
	"bufferViews":[
		{
			"buffer":0,
			"byteLength":480,
			"byteOffset":0,
			"target":34962
		},
		{
			"buffer":0,
			"byteLength":480,
			"byteOffset":480,
			"target":34962
		},
		{
			"buffer":0,
			"byteLength":320,
			"byteOffset":960,
			"target":34962
		},
		{
			"buffer":0,
			"byteLength":168,
			"byteOffset":1280,
			"target":34963
		},
		{
			"buffer":0,
			"byteLength":288,
			"byteOffset":1448,
			"target":34962
		},
		{
			"buffer":0,
			"byteLength":288,
			"byteOffset":1736,
			"target":34962
		},
		{
			"buffer":0,
			"byteLength":192,
			"byteOffset":2024,
			"target":34962
		},
		{
			"buffer":0,
			"byteLength":72,
			"byteOffset":2216,
			"target":34963
		},
		{
			"buffer":0,
			"byteLength":120,
			"byteOffset":2288,
			"target":34962
		},
		{
			"buffer":0,
			"byteLength":120,
			"byteOffset":2408,
			"target":34962
		},
		{
			"buffer":0,
			"byteLength":80,
			"byteOffset":2528,
			"target":34962
		},
		{
			"buffer":0,
			"byteLength":24,
			"byteOffset":2608,
			"target":34963
		}
	],
	"buffers":[
		{
			"byteLength":2632,
			"uri":"roadStraightBridge.bin"
		}
	]
}
