{
	"asset":{
		"generator":"Khronos glTF Blender I/O v4.5.47",
		"version":"2.0"
	},
	"extensionsUsed":[
		"KHR_materials_specular"
	],
	"scene":0,
	"scenes":[
		{
			"name":"Scene",
			"nodes":[
				0
			]
		}
	],
	"nodes":[
		{
			"mesh":0,
			"name":"roadCornerSmall",
			"rotation":[
				0.7071068286895752,
				0,
				0,
				0.7071068286895752
			]
		}
	],
	"materials":[
		{
			"doubleSided":true,
			"extensions":{
				"KHR_materials_specular":{
					"specularColorFactor":[
						0.4000000059604645,
						0.4000000059604645,
						0.4000000059604645
					]
				}
			},
			"name":"Curb",
			"pbrMetallicRoughness":{
				"baseColorFactor":[
					0.9450979828834534,
					0.9490196108818054,
					0.9647058844566345,
					1
				],
				"metallicFactor":0,
				"roughnessFactor":0.5527864098548889
			}
		},
		{
			"doubleSided":true,
			"extensions":{
				"KHR_materials_specular":{
					"specularColorFactor":[
						0.4000000059604645,
						0.4000000059604645,
						0.4000000059604645
					]
				}
			},
			"name":"Road",
			"pbrMetallicRoughness":{
				"baseColorFactor":[
					0.2663537561893463,
					0.26635587215423584,
					0.2663556933403015,
					1
				],
				"metallicFactor":0
			}
		},
		{
			"doubleSided":true,
			"extensions":{
				"KHR_materials_specular":{
					"specularColorFactor":[
						0.4000000059604645,
						0.4000000059604645,
						0.4000000059604645
					]
				}
			},
			"name":"PinkGrass",
			"pbrMetallicRoughness":{
				"baseColorFactor":[
					0.4019641876220703,
					0.007295854389667511,
					0.26789525151252747,
					1
				],
				"metallicFactor":0,
				"roughnessFactor":0.5527864098548889
			}
		}
	],
	"meshes":[
		{
			"name":"roadCornerSmall-col",
			"primitives":[
				{
					"attributes":{
						"POSITION":0,
						"NORMAL":1,
						"TEXCOORD_0":2
					},
					"indices":3,
					"material":0
				},
				{
					"attributes":{
						"POSITION":4,
						"NORMAL":5,
						"TEXCOORD_0":6
					},
					"indices":7,
					"material":1
				},
				{
					"attributes":{
						"POSITION":8,
						"NORMAL":9,
						"TEXCOORD_0":10
					},
					"indices":11,
					"material":2
				}
			]
		}
	],
	"accessors":[
		{
			"bufferView":0,
			"componentType":5126,
			"count":244,
			"max":[
				-1.2247892618179321,
				13.775209426879883,
				0
			],
			"min":[
				-15,
				8.673764831379494e-12,
				-0.20000000298023224
			],
			"type":"VEC3"
		},
		{
			"bufferView":1,
			"componentType":5126,
			"count":244,
			"type":"VEC3"
		},
		{
			"bufferView":2,
			"componentType":5126,
			"count":244,
			"type":"VEC2"
		},
		{
			"bufferView":3,
			"componentType":5123,
			"count":432,
			"type":"SCALAR"
		},
		{
			"bufferView":4,
			"componentType":5126,
			"count":26,
			"max":[
				-2.3229734897613525,
				12.677026748657227,
				-0.09999998658895493
			],
			"min":[
				-15,
				8.673764831379494e-12,
				-0.09999998658895493
			],
			"type":"VEC3"
		},
		{
			"bufferView":5,
			"componentType":5126,
			"count":26,
			"type":"VEC3"
		},
		{
			"bufferView":6,
			"componentType":5126,
			"count":26,
			"type":"VEC2"
		},
		{
			"bufferView":7,
			"componentType":5123,
			"count":72,
			"type":"SCALAR"
		},
		{
			"bufferView":8,
			"componentType":5126,
			"count":40,
			"max":[
				0,
				15,
				0
			],
			"min":[
				-15,
				0,
				0
			],
			"type":"VEC3"
		},
		{
			"bufferView":9,
			"componentType":5126,
			"count":40,
			"type":"VEC3"
		},
		{
			"bufferView":10,
			"componentType":5126,
			"count":40,
			"type":"VEC2"
		},
		{
			"bufferView":11,
			"componentType":5123,
			"count":108,
			"type":"SCALAR"
		}
	],
	"bufferViews":[
		{
			"buffer":0,
			"byteLength":2928,
			"byteOffset":0,
			"target":34962
		},
		{
			"buffer":0,
			"byteLength":2928,
			"byteOffset":2928,
			"target":34962
		},
		{
			"buffer":0,
			"byteLength":1952,
			"byteOffset":5856,
			"target":34962
		},
		{
			"buffer":0,
			"byteLength":864,
			"byteOffset":7808,
			"target":34963
		},
		{
			"buffer":0,
			"byteLength":312,
			"byteOffset":8672,
			"target":34962
		},
		{
			"buffer":0,
			"byteLength":312,
			"byteOffset":8984,
			"target":34962
		},
		{
			"buffer":0,
			"byteLength":208,
			"byteOffset":9296,
			"target":34962
		},
		{
			"buffer":0,
			"byteLength":144,
			"byteOffset":9504,
			"target":34963
		},
		{
			"buffer":0,
			"byteLength":480,
			"byteOffset":9648,
			"target":34962
		},
		{
			"buffer":0,
			"byteLength":480,
			"byteOffset":10128,
			"target":34962
		},
		{
			"buffer":0,
			"byteLength":320,
			"byteOffset":10608,
			"target":34962
		},
		{
			"buffer":0,
			"byteLength":216,
			"byteOffset":10928,
			"target":34963
		}
	],
	"buffers":[
		{
			"byteLength":11144,
			"uri":"roadCornerSmall.bin"
		}
	]
}
