{
	"asset":{
		"generator":"Khronos glTF Blender I/O v4.5.47",
		"version":"2.0"
	},
	"extensionsUsed":[
		"KHR_materials_specular"
	],
	"scene":0,
	"scenes":[
		{
			"name":"Scene",
			"nodes":[
				0
			]
		}
	],
	"nodes":[
		{
			"mesh":0,
			"name":"roadStraightwideenterlong",
			"rotation":[
				0.7071068286895752,
				0,
				0,
				0.7071068286895752
			]
		}
	],
	"materials":[
		{
			"doubleSided":true,
			"extensions":{
				"KHR_materials_specular":{
					"specularColorFactor":[
						0.4000000059604645,
						0.4000000059604645,
						0.4000000059604645
					]
				}
			},
			"name":"Curb",
			"pbrMetallicRoughness":{
				"baseColorFactor":[
					0.9450979828834534,
					0.9490196108818054,
					0.9647058844566345,
					1
				],
				"metallicFactor":0,
				"roughnessFactor":0.5527864098548889
			}
		},
		{
			"doubleSided":true,
			"extensions":{
				"KHR_materials_specular":{
					"specularColorFactor":[
						0.4000000059604645,
						0.4000000059604645,
						0.4000000059604645
					]
				}
			},
			"name":"PinkGrass",
			"pbrMetallicRoughness":{
				"baseColorFactor":[
					0.4019641876220703,
					0.007295854389667511,
					0.26789525151252747,
					1
				],
				"metallicFactor":0,
				"roughnessFactor":0.5527864098548889
			}
		},
		{
			"doubleSided":true,
			"extensions":{
				"KHR_materials_specular":{
					"specularColorFactor":[
						0.4000000059604645,
						0.4000000059604645,
						0.4000000059604645
					]
				}
			},
			"name":"Road",
			"pbrMetallicRoughness":{
				"baseColorFactor":[
					0.2663537561893463,
					0.26635587215423584,
					0.2663556933403015,
					1
				],
				"metallicFactor":0
			}
		}
	],
	"meshes":[
		{
			"name":"roadStraightwideenterlong-col",
			"primitives":[
				{
					"attributes":{
						"POSITION":0,
						"NORMAL":1,
						"TEXCOORD_0":2,
						"TEXCOORD_1":3
					},
					"indices":4,
					"material":0
				},
				{
					"attributes":{
						"POSITION":5,
						"NORMAL":6,
						"TEXCOORD_0":7,
						"TEXCOORD_1":8
					},
					"indices":9,
					"material":1
				},
				{
					"attributes":{
						"POSITION":10,
						"NORMAL":11,
						"TEXCOORD_0":12,
						"TEXCOORD_1":13
					},
					"indices":14,
					"material":2
				}
			]
		}
	],
	"accessors":[
		{
			"bufferView":0,
			"componentType":5126,
			"count":24,
			"max":[
				3.7752108573913574,
				30,
				1.1324684692226583e-06
			],
			"min":[
				-18.775209426879883,
				0,
				-0.20000000298023224
			],
			"type":"VEC3"
		},
		{
			"bufferView":1,
			"componentType":5126,
			"count":24,
			"type":"VEC3"
		},
		{
			"bufferView":2,
			"componentType":5126,
			"count":24,
			"type":"VEC2"
		},
		{
			"bufferView":3,
			"componentType":5126,
			"count":24,
			"type":"VEC2"
		},
		{
			"bufferView":4,
			"componentType":5123,
			"count":36,
			"type":"SCALAR"
		},
		{
			"bufferView":5,
			"componentType":5126,
			"count":8,
			"max":[
				5,
				30,
				1.1324684692226583e-06
			],
			"min":[
				-20,
				0,
				0
			],
			"type":"VEC3"
		},
		{
			"bufferView":6,
			"componentType":5126,
			"count":8,
			"type":"VEC3"
		},
		{
			"bufferView":7,
			"componentType":5126,
			"count":8,
			"type":"VEC2"
		},
		{
			"bufferView":8,
			"componentType":5126,
			"count":8,
			"type":"VEC2"
		},
		{
			"bufferView":9,
			"componentType":5123,
			"count":12,
			"type":"SCALAR"
		},
		{
			"bufferView":10,
			"componentType":5126,
			"count":4,
			"max":[
				2.6770265102386475,
				30,
				-0.0999988541007042
			],
			"min":[
				-17.677026748657227,
				0,
				-0.09999998658895493
			],
			"type":"VEC3"
		},
		{
			"bufferView":11,
			"componentType":5126,
			"count":4,
			"type":"VEC3"
		},
		{
			"bufferView":12,
			"componentType":5126,
			"count":4,
			"type":"VEC2"
		},
		{
			"bufferView":13,
			"componentType":5126,
			"count":4,
			"type":"VEC2"
		},
		{
			"bufferView":14,
			"componentType":5123,
			"count":6,
			"type":"SCALAR"
		}
	],
	"bufferViews":[
		{
			"buffer":0,
			"byteLength":288,
			"byteOffset":0,
			"target":34962
		},
		{
			"buffer":0,
			"byteLength":288,
			"byteOffset":288,
			"target":34962
		},
		{
			"buffer":0,
			"byteLength":192,
			"byteOffset":576,
			"target":34962
		},
		{
			"buffer":0,
			"byteLength":192,
			"byteOffset":768,
			"target":34962
		},
		{
			"buffer":0,
			"byteLength":72,
			"byteOffset":960,
			"target":34963
		},
		{
			"buffer":0,
			"byteLength":96,
			"byteOffset":1032,
			"target":34962
		},
		{
			"buffer":0,
			"byteLength":96,
			"byteOffset":1128,
			"target":34962
		},
		{
			"buffer":0,
			"byteLength":64,
			"byteOffset":1224,
			"target":34962
		},
		{
			"buffer":0,
			"byteLength":64,
			"byteOffset":1288,
			"target":34962
		},
		{
			"buffer":0,
			"byteLength":24,
			"byteOffset":1352,
			"target":34963
		},
		{
			"buffer":0,
			"byteLength":48,
			"byteOffset":1376,
			"target":34962
		},
		{
			"buffer":0,
			"byteLength":48,
			"byteOffset":1424,
			"target":34962
		},
		{
			"buffer":0,
			"byteLength":32,
			"byteOffset":1472,
			"target":34962
		},
		{
			"buffer":0,
			"byteLength":32,
			"byteOffset":1504,
			"target":34962
		},
		{
			"buffer":0,
			"byteLength":12,
			"byteOffset":1536,
			"target":34963
		}
	],
	"buffers":[
		{
			"byteLength":1548,
			"uri":"roadStraightwideenterlong.bin"
		}
	]
}
