{"accessors":[{"bufferView":0,"byteOffset":0,"componentType":5126,"count":2454,"max":[63.3823852539063,7.1010684967041,63.1245956420898],"min":[48.2778472900391,-0.0867538005113602,-37.7930870056152],"normalized":false,"type":"VEC3"},{"bufferView":1,"byteOffset":0,"componentType":5126,"count":2454,"max":[0.908105731010437,0.0374791994690895,0.999290108680725,1.0],"min":[-0.999291241168976,-0.0000158225957420655,0.0376425087451935,1.0],"normalized":false,"type":"VEC4"},{"bufferView":2,"byteOffset":0,"componentType":5126,"count":2454,"max":[0.999291300773621,0.999999761581421,0.907380044460297],"min":[-0.999291300773621,-0.999999761581421,-0.999290704727173],"normalized":false,"type":"VEC3"},{"bufferView":3,"byteOffset":0,"componentType":5126,"count":2454,"max":[103.20043182373,1.0],"min":[0.0,0.0],"normalized":false,"type":"VEC2"},{"bufferView":4,"byteOffset":0,"componentType":5123,"count":2454,"max":[2453.0],"min":[0.0],"normalized":false,"type":"SCALAR"},{"bufferView":5,"byteOffset":0,"componentType":5126,"count":7164,"max":[73.1408538818359,6.07109785079956,-181.962951660156],"min":[-103.254722595215,-0.98774790763855,-279.152465820313],"normalized":false,"type":"VEC3"},{"bufferView":6,"byteOffset":0,"componentType":5126,"count":7164,"max":[0.999864339828491,0.0169105790555477,0.999734699726105,1.0],"min":[-0.999952614307404,-0.0263408701866865,-0.99989914894104,1.0],"normalized":false,"type":"VEC4"},{"bufferView":7,"byteOffset":0,"componentType":5126,"count":7164,"max":[0.999935507774353,0.999998807907104,0.999992668628693],"min":[-0.999864995479584,-0.999998867511749,-0.999999046325684],"normalized":false,"type":"VEC3"},{"bufferView":8,"byteOffset":0,"componentType":5126,"count":7164,"max":[304.160949707031,1.0],"min":[0.0,0.0],"normalized":false,"type":"VEC2"},{"bufferView":9,"byteOffset":0,"componentType":5123,"count":7164,"max":[7163.0],"min":[0.0],"normalized":false,"type":"SCALAR"},{"bufferView":10,"byteOffset":0,"componentType":5126,"count":2622,"max":[-19.4179992675781,7.14095115661621,104.377784729004],"min":[-70.2059936523438,-0.0840033963322639,19.2227249145508],"normalized":false,"type":"VEC3"},{"bufferView":11,"byteOffset":0,"componentType":5126,"count":2622,"max":[0.982473850250244,0.0314302369952202,0.999986886978149,1.0],"min":[-0.999038517475128,-0.0176161490380764,-0.981400310993195,1.0],"normalized":false,"type":"VEC4"},{"bufferView":12,"byteOffset":0,"componentType":5126,"count":2622,"max":[0.999910593032837,0.999999344348907,0.981397271156311],"min":[-0.999988079071045,-0.999999344348907,-0.999037623405457],"normalized":false,"type":"VEC3"},{"bufferView":13,"byteOffset":0,"componentType":5126,"count":2622,"max":[111.820022583008,1.0],"min":[0.0,0.0],"normalized":false,"type":"VEC2"},{"bufferView":14,"byteOffset":0,"componentType":5123,"count":2622,"max":[2621.0],"min":[0.0],"normalized":false,"type":"SCALAR"}],"asset":{"generator":"Godot Engine v4.4.1.stable.mono.official@49a5bc7b616bd04689a2c89e89bda41f50241464","version":"2.0"},"bufferViews":[{"buffer":0,"byteLength":29448,"byteOffset":0,"byteStride":12,"target":34962},{"buffer":0,"byteLength":39264,"byteOffset":29448,"byteStride":16,"target":34962},{"buffer":0,"byteLength":29448,"byteOffset":68712,"byteStride":12,"target":34962},{"buffer":0,"byteLength":19632,"byteOffset":98160,"byteStride":8,"target":34962},{"buffer":0,"byteLength":4908,"byteOffset":117792,"target":34963},{"buffer":0,"byteLength":85968,"byteOffset":122700,"byteStride":12,"target":34962},{"buffer":0,"byteLength":114624,"byteOffset":208668,"byteStride":16,"target":34962},{"buffer":0,"byteLength":85968,"byteOffset":323292,"byteStride":12,"target":34962},{"buffer":0,"byteLength":57312,"byteOffset":409260,"byteStride":8,"target":34962},{"buffer":0,"byteLength":14328,"byteOffset":466572,"target":34963},{"buffer":0,"byteLength":31464,"byteOffset":480900,"byteStride":12,"target":34962},{"buffer":0,"byteLength":41952,"byteOffset":512364,"byteStride":16,"target":34962},{"buffer":0,"byteLength":31464,"byteOffset":554316,"byteStride":12,"target":34962},{"buffer":0,"byteLength":20976,"byteOffset":585780,"byteStride":8,"target":34962},{"buffer":0,"byteLength":5244,"byteOffset":606756,"target":34963}],"buffers":[{"byteLength":612000,"uri":"level_short_csg0.bin"}],"extensions":{"OMI_physics_shape":{"shapes":[{"trimesh":{"mesh":0},"type":"trimesh"},{"trimesh":{"mesh":1},"type":"trimesh"},{"trimesh":{"mesh":2},"type":"trimesh"}]}},"extensionsUsed":["GODOT_single_root","OMI_physics_body","OMI_physics_shape"],"materials":[{},{},{}],"meshes":[{"extras":{"targetNames":[]},"primitives":[{"attributes":{"NORMAL":2,"POSITION":0,"TANGENT":1,"TEXCOORD_0":3},"indices":4,"material":0,"mode":4}]},{"extras":{"targetNames":[]},"primitives":[{"attributes":{"NORMAL":7,"POSITION":5,"TANGENT":6,"TEXCOORD_0":8},"indices":9,"material":1,"mode":4}]},{"extras":{"targetNames":[]},"primitives":[{"attributes":{"NORMAL":12,"POSITION":10,"TANGENT":11,"TEXCOORD_0":13},"indices":14,"material":2,"mode":4}]}],"nodes":[{"children":[1,4,7,10,12,14],"name":"CSG"},{"children":[2,3],"mesh":0,"name":"CSGCombiner3D22"},{"name":"CSGPolygon3D"},{"name":"Path3D","translation":[63.0861015319824,0.0,-34.8799018859863]},{"children":[5,6],"mesh":1,"name":"CSGCombiner3D32","translation":[-3.97032999992371,0.0,99.5764999389648]},{"name":"CSGPolygon3D2","translation":[3.97032999992371,0.0,-99.5764999389648]},{"name":"Path3D2","translation":[67.056396484375,0.0,-134.455993652344]},{"children":[8,9],"mesh":2,"name":"CSGCombiner3D42"},{"name":"CSGPolygon3D3"},{"name":"Path3D3"},{"children":[11],"extensions":{"OMI_physics_body":{"motion":{"type":"static"}}},"name":"StaticBody3D3","translation":[-3.97032999992371,0.0,99.5764999389648]},{"extensions":{"OMI_physics_body":{"collider":{"shape":0}}},"name":"CSGBakedCollisionShape3D","translation":[3.97033667564392,0.0,-99.5765075683594]},{"children":[13],"extensions":{"OMI_physics_body":{"motion":{"type":"static"}}},"name":"StaticBody3D2"},{"extensions":{"OMI_physics_body":{"collider":{"shape":1}}},"name":"CSGBakedCollisionShape3D2","translation":[-3.97032999992371,0.0,99.5764999389648]},{"children":[15],"extensions":{"OMI_physics_body":{"motion":{"type":"static"}}},"name":"StaticBody3D"},{"extensions":{"OMI_physics_body":{"collider":{"shape":2}}},"name":"CSGBakedCollisionShape3D3"}],"scene":0,"scenes":[{"nodes":[0]}]}