{
	"asset":{
		"generator":"Khronos glTF Blender I/O v4.5.47",
		"version":"2.0"
	},
	"extensionsUsed":[
		"KHR_materials_emissive_strength"
	],
	"scene":0,
	"scenes":[
		{
			"name":"Scene",
			"nodes":[
				7
			]
		}
	],
	"nodes":[
		{
			"mesh":0,
			"name":"BackLeftWheel_Car1",
			"rotation":[
				0,
				0,
				0.7071068286895752,
				0.7071068286895752
			],
			"translation":[
				0.18424765765666962,
				0.5499390959739685,
				-1.389361023902893
			]
		},
		{
			"mesh":1,
			"name":"BackRightWheel_Car1",
			"rotation":[
				0,
				0,
				0.7071068286895752,
				0.7071068286895752
			],
			"translation":[
				0.18424756824970245,
				-0.5482111573219299,
				-1.3893617391586304
			]
		},
		{
			"mesh":2,
			"name":"Driver1",
			"rotation":[
				0,
				0,
				0.7071068286895752,
				0.7071068286895752
			],
			"translation":[
				-0.4800288677215576,
				-0.01050636824220419,
				-0.34633827209472656
			]
		},
		{
			"mesh":3,
			"name":"FrontLeftWheel_Car1",
			"rotation":[
				0,
				0,
				0.7071068286895752,
				0.7071068286895752
			],
			"translation":[
				0.18424765765666962,
				0.5820937156677246,
				0.7289015054702759
			]
		},
		{
			"mesh":4,
			"name":"FrontRightWheel_Car1",
			"rotation":[
				0,
				0,
				0.7071068286895752,
				0.7071068286895752
			],
			"translation":[
				0.18424756824970245,
				-0.5803685188293457,
				0.7289007902145386
			]
		},
		{
			"mesh":5,
			"name":"LeftDoor_Car1",
			"rotation":[
				0.7069966793060303,
				0.7069966793060303,
				-0.012476980686187744,
				0.012477378360927105
			],
			"translation":[
				0.0030081712175160646,
				0.5823630690574646,
				0.09025063365697861
			]
		},
		{
			"mesh":6,
			"name":"RightDoor_Car1",
			"rotation":[
				0.02115792967379093,
				-0.02115793153643608,
				0.7067901492118835,
				0.7067902088165283
			],
			"translation":[
				0.00300808297470212,
				-0.5861664414405823,
				0.09024987369775772
			]
		},
		{
			"children":[
				0,
				1,
				2,
				3,
				4,
				5,
				6
			],
			"mesh":7,
			"name":"CarFrame1",
			"rotation":[
				0,
				0,
				-0.7071068286895752,
				0.7071068286895752
			]
		}
	],
	"materials":[
		{
			"doubleSided":true,
			"name":"colormap",
			"pbrMetallicRoughness":{
				"baseColorTexture":{
					"index":0
				},
				"metallicFactor":0,
				"roughnessFactor":0.5
			}
		},
		{
			"doubleSided":true,
			"emissiveFactor":[
				1,
				1,
				1
			],
			"extensions":{
				"KHR_materials_emissive_strength":{
					"emissiveStrength":124.89999389648438
				}
			},
			"name":"head-light_inner",
			"pbrMetallicRoughness":{
				"baseColorTexture":{
					"index":1
				},
				"metallicFactor":0,
				"roughnessFactor":0.5
			}
		},
		{
			"doubleSided":true,
			"emissiveFactor":[
				0.15821267664432526,
				0.34061115980148315,
				1
			],
			"extensions":{
				"KHR_materials_emissive_strength":{
					"emissiveStrength":129.09999084472656
				}
			},
			"name":"head-light_outer",
			"pbrMetallicRoughness":{
				"baseColorTexture":{
					"index":2
				},
				"metallicFactor":0,
				"roughnessFactor":0.5
			}
		},
		{
			"doubleSided":true,
			"emissiveFactor":[
				1,
				1,
				1
			],
			"emissiveTexture":{
				"index":3
			},
			"extensions":{
				"KHR_materials_emissive_strength":{
					"emissiveStrength":5
				}
			},
			"name":"tail-light",
			"pbrMetallicRoughness":{
				"baseColorTexture":{
					"index":4
				},
				"metallicFactor":0,
				"roughnessFactor":0.5
			}
		}
	],
	"meshes":[
		{
			"name":"Cube.006",
			"primitives":[
				{
					"attributes":{
						"POSITION":0,
						"NORMAL":1,
						"TEXCOORD_0":2
					},
					"indices":3,
					"material":0
				}
			]
		},
		{
			"name":"Cube.005",
			"primitives":[
				{
					"attributes":{
						"POSITION":4,
						"NORMAL":5,
						"TEXCOORD_0":6
					},
					"indices":7,
					"material":0
				}
			]
		},
		{
			"name":"Sphere.001",
			"primitives":[
				{
					"attributes":{
						"POSITION":8,
						"NORMAL":9,
						"TEXCOORD_0":10
					},
					"indices":11,
					"material":0
				}
			]
		},
		{
			"name":"Cube.004",
			"primitives":[
				{
					"attributes":{
						"POSITION":12,
						"NORMAL":13,
						"TEXCOORD_0":14
					},
					"indices":3,
					"material":0
				}
			]
		},
		{
			"name":"Cube.011",
			"primitives":[
				{
					"attributes":{
						"POSITION":15,
						"NORMAL":16,
						"TEXCOORD_0":17
					},
					"indices":7,
					"material":0
				}
			]
		},
		{
			"name":"Cube.001",
			"primitives":[
				{
					"attributes":{
						"POSITION":18,
						"NORMAL":19,
						"TEXCOORD_0":20
					},
					"indices":21,
					"material":0
				}
			]
		},
		{
			"name":"Cube.003",
			"primitives":[
				{
					"attributes":{
						"POSITION":22,
						"NORMAL":23,
						"TEXCOORD_0":24
					},
					"indices":21,
					"material":0
				}
			]
		},
		{
			"name":"CarFrame1",
			"primitives":[
				{
					"attributes":{
						"POSITION":25,
						"NORMAL":26,
						"TEXCOORD_0":27
					},
					"indices":28,
					"material":0
				},
				{
					"attributes":{
						"POSITION":29,
						"NORMAL":30,
						"TEXCOORD_0":31
					},
					"indices":32,
					"material":1
				},
				{
					"attributes":{
						"POSITION":33,
						"NORMAL":34,
						"TEXCOORD_0":35
					},
					"indices":32,
					"material":2
				},
				{
					"attributes":{
						"POSITION":36,
						"NORMAL":37,
						"TEXCOORD_0":38
					},
					"indices":39,
					"material":3
				}
			]
		}
	],
	"textures":[
		{
			"sampler":0,
			"source":0
		},
		{
			"sampler":0,
			"source":0
		},
		{
			"sampler":0,
			"source":0
		},
		{
			"sampler":1,
			"source":0
		},
		{
			"sampler":0,
			"source":0
		}
	],
	"images":[
		{
			"mimeType":"image/png",
			"name":"SynthWaveFloorTextures.png",
			"uri":"Textures/SynthWaveFloorTextures.png.png"
		}
	],
	"accessors":[
		{
			"bufferView":0,
			"componentType":5126,
			"count":416,
			"max":[
				0.06609005481004715,
				0.22814801335334778,
				0.228147953748703
			],
			"min":[
				-0.09203773736953735,
				-0.22814804315567017,
				-0.22814807295799255
			],
			"type":"VEC3"
		},
		{
			"bufferView":1,
			"componentType":5126,
			"count":416,
			"type":"VEC3"
		},
		{
			"bufferView":2,
			"componentType":5126,
			"count":416,
			"type":"VEC2"
		},
		{
			"bufferView":3,
			"componentType":5123,
			"count":1044,
			"type":"SCALAR"
		},
		{
			"bufferView":4,
			"componentType":5126,
			"count":407,
			"max":[
				0.09203773736953735,
				0.22814801335334778,
				0.228147953748703
			],
			"min":[
				-0.06609005481004715,
				-0.22814804315567017,
				-0.22814807295799255
			],
			"type":"VEC3"
		},
		{
			"bufferView":5,
			"componentType":5126,
			"count":407,
			"type":"VEC3"
		},
		{
			"bufferView":6,
			"componentType":5126,
			"count":407,
			"type":"VEC2"
		},
		{
			"bufferView":7,
			"componentType":5123,
			"count":1044,
			"type":"SCALAR"
		},
		{
			"bufferView":8,
			"componentType":5126,
			"count":904,
			"max":[
				0.2903156876564026,
				0.08276649564504623,
				0.44702965021133423
			],
			"min":[
				-0.2903151512145996,
				-0.592318594455719,
				-0.1033405140042305
			],
			"type":"VEC3"
		},
		{
			"bufferView":9,
			"componentType":5126,
			"count":904,
			"type":"VEC3"
		},
		{
			"bufferView":10,
			"componentType":5126,
			"count":904,
			"type":"VEC2"
		},
		{
			"bufferView":11,
			"componentType":5123,
			"count":3120,
			"type":"SCALAR"
		},
		{
			"bufferView":12,
			"componentType":5126,
			"count":416,
			"max":[
				0.06609005481004715,
				0.22814801335334778,
				0.228147953748703
			],
			"min":[
				-0.09203773736953735,
				-0.22814804315567017,
				-0.22814807295799255
			],
			"type":"VEC3"
		},
		{
			"bufferView":13,
			"componentType":5126,
			"count":416,
			"type":"VEC3"
		},
		{
			"bufferView":14,
			"componentType":5126,
			"count":416,
			"type":"VEC2"
		},
		{
			"bufferView":15,
			"componentType":5126,
			"count":407,
			"max":[
				0.09203773736953735,
				0.22814801335334778,
				0.228147953748703
			],
			"min":[
				-0.06609005481004715,
				-0.22814804315567017,
				-0.22814807295799255
			],
			"type":"VEC3"
		},
		{
			"bufferView":16,
			"componentType":5126,
			"count":407,
			"type":"VEC3"
		},
		{
			"bufferView":17,
			"componentType":5126,
			"count":407,
			"type":"VEC2"
		},
		{
			"bufferView":18,
			"componentType":5126,
			"count":54,
			"max":[
				0.09981052577495575,
				0.11023444682359695,
				0.576315701007843
			],
			"min":[
				-0.02619081549346447,
				-0.29237493872642517,
				-0.1029139831662178
			],
			"type":"VEC3"
		},
		{
			"bufferView":19,
			"componentType":5126,
			"count":54,
			"type":"VEC3"
		},
		{
			"bufferView":20,
			"componentType":5126,
			"count":54,
			"type":"VEC2"
		},
		{
			"bufferView":21,
			"componentType":5123,
			"count":108,
			"type":"SCALAR"
		},
		{
			"bufferView":22,
			"componentType":5126,
			"count":54,
			"max":[
				0.02619081921875477,
				0.29237493872642517,
				0.102913998067379
			],
			"min":[
				-0.09981054812669754,
				-0.11023444682359695,
				-0.5763158202171326
			],
			"type":"VEC3"
		},
		{
			"bufferView":23,
			"componentType":5126,
			"count":54,
			"type":"VEC3"
		},
		{
			"bufferView":24,
			"componentType":5126,
			"count":54,
			"type":"VEC2"
		},
		{
			"bufferView":25,
			"componentType":5126,
			"count":3671,
			"max":[
				0.281144380569458,
				0.7291725277900696,
				1.373964548110962
			],
			"min":[
				-0.529909074306488,
				-0.7327988743782043,
				-2.0929601192474365
			],
			"type":"VEC3"
		},
		{
			"bufferView":26,
			"componentType":5126,
			"count":3671,
			"type":"VEC3"
		},
		{
			"bufferView":27,
			"componentType":5126,
			"count":3671,
			"type":"VEC2"
		},
		{
			"bufferView":28,
			"componentType":5123,
			"count":8484,
			"type":"SCALAR"
		},
		{
			"bufferView":29,
			"componentType":5126,
			"count":48,
			"max":[
				0.03893881291151047,
				0.5055777430534363,
				1.2174875736236572
			],
			"min":[
				-0.10089131444692612,
				-0.5038530826568604,
				1.0842639207839966
			],
			"type":"VEC3"
		},
		{
			"bufferView":30,
			"componentType":5126,
			"count":48,
			"type":"VEC3"
		},
		{
			"bufferView":31,
			"componentType":5126,
			"count":48,
			"type":"VEC2"
		},
		{
			"bufferView":32,
			"componentType":5123,
			"count":72,
			"type":"SCALAR"
		},
		{
			"bufferView":33,
			"componentType":5126,
			"count":48,
			"max":[
				0.03431146591901779,
				0.6311142444610596,
				1.2174875736236572
			],
			"min":[
				-0.09645688533782959,
				-0.6293895840644836,
				1.0842639207839966
			],
			"type":"VEC3"
		},
		{
			"bufferView":34,
			"componentType":5126,
			"count":48,
			"type":"VEC3"
		},
		{
			"bufferView":35,
			"componentType":5126,
			"count":48,
			"type":"VEC2"
		},
		{
			"bufferView":36,
			"componentType":5126,
			"count":48,
			"max":[
				0.11588865518569946,
				0.6755803823471069,
				-1.8056674003601074
			],
			"min":[
				-0.09264829009771347,
				-0.673855185508728,
				-1.9052233695983887
			],
			"type":"VEC3"
		},
		{
			"bufferView":37,
			"componentType":5126,
			"count":48,
			"type":"VEC3"
		},
		{
			"bufferView":38,
			"componentType":5126,
			"count":48,
			"type":"VEC2"
		},
		{
			"bufferView":39,
			"componentType":5123,
			"count":72,
			"type":"SCALAR"
		}
	],
	"bufferViews":[
		{
			"buffer":0,
			"byteLength":4992,
			"byteOffset":0,
			"target":34962
		},
		{
			"buffer":0,
			"byteLength":4992,
			"byteOffset":4992,
			"target":34962
		},
		{
			"buffer":0,
			"byteLength":3328,
			"byteOffset":9984,
			"target":34962
		},
		{
			"buffer":0,
			"byteLength":2088,
			"byteOffset":13312,
			"target":34963
		},
		{
			"buffer":0,
			"byteLength":4884,
			"byteOffset":15400,
			"target":34962
		},
		{
			"buffer":0,
			"byteLength":4884,
			"byteOffset":20284,
			"target":34962
		},
		{
			"buffer":0,
			"byteLength":3256,
			"byteOffset":25168,
			"target":34962
		},
		{
			"buffer":0,
			"byteLength":2088,
			"byteOffset":28424,
			"target":34963
		},
		{
			"buffer":0,
			"byteLength":10848,
			"byteOffset":30512,
			"target":34962
		},
		{
			"buffer":0,
			"byteLength":10848,
			"byteOffset":41360,
			"target":34962
		},
		{
			"buffer":0,
			"byteLength":7232,
			"byteOffset":52208,
			"target":34962
		},
		{
			"buffer":0,
			"byteLength":6240,
			"byteOffset":59440,
			"target":34963
		},
		{
			"buffer":0,
			"byteLength":4992,
			"byteOffset":65680,
			"target":34962
		},
		{
			"buffer":0,
			"byteLength":4992,
			"byteOffset":70672,
			"target":34962
		},
		{
			"buffer":0,
			"byteLength":3328,
			"byteOffset":75664,
			"target":34962
		},
		{
			"buffer":0,
			"byteLength":4884,
			"byteOffset":78992,
			"target":34962
		},
		{
			"buffer":0,
			"byteLength":4884,
			"byteOffset":83876,
			"target":34962
		},
		{
			"buffer":0,
			"byteLength":3256,
			"byteOffset":88760,
			"target":34962
		},
		{
			"buffer":0,
			"byteLength":648,
			"byteOffset":92016,
			"target":34962
		},
		{
			"buffer":0,
			"byteLength":648,
			"byteOffset":92664,
			"target":34962
		},
		{
			"buffer":0,
			"byteLength":432,
			"byteOffset":93312,
			"target":34962
		},
		{
			"buffer":0,
			"byteLength":216,
			"byteOffset":93744,
			"target":34963
		},
		{
			"buffer":0,
			"byteLength":648,
			"byteOffset":93960,
			"target":34962
		},
		{
			"buffer":0,
			"byteLength":648,
			"byteOffset":94608,
			"target":34962
		},
		{
			"buffer":0,
			"byteLength":432,
			"byteOffset":95256,
			"target":34962
		},
		{
			"buffer":0,
			"byteLength":44052,
			"byteOffset":95688,
			"target":34962
		},
		{
			"buffer":0,
			"byteLength":44052,
			"byteOffset":139740,
			"target":34962
		},
		{
			"buffer":0,
			"byteLength":29368,
			"byteOffset":183792,
			"target":34962
		},
		{
			"buffer":0,
			"byteLength":16968,
			"byteOffset":213160,
			"target":34963
		},
		{
			"buffer":0,
			"byteLength":576,
			"byteOffset":230128,
			"target":34962
		},
		{
			"buffer":0,
			"byteLength":576,
			"byteOffset":230704,
			"target":34962
		},
		{
			"buffer":0,
			"byteLength":384,
			"byteOffset":231280,
			"target":34962
		},
		{
			"buffer":0,
			"byteLength":144,
			"byteOffset":231664,
			"target":34963
		},
		{
			"buffer":0,
			"byteLength":576,
			"byteOffset":231808,
			"target":34962
		},
		{
			"buffer":0,
			"byteLength":576,
			"byteOffset":232384,
			"target":34962
		},
		{
			"buffer":0,
			"byteLength":384,
			"byteOffset":232960,
			"target":34962
		},
		{
			"buffer":0,
			"byteLength":576,
			"byteOffset":233344,
			"target":34962
		},
		{
			"buffer":0,
			"byteLength":576,
			"byteOffset":233920,
			"target":34962
		},
		{
			"buffer":0,
			"byteLength":384,
			"byteOffset":234496,
			"target":34962
		},
		{
			"buffer":0,
			"byteLength":144,
			"byteOffset":234880,
			"target":34963
		}
	],
	"samplers":[
		{
			"magFilter":9729,
			"minFilter":9987
		},
		{
			"magFilter":9728,
			"minFilter":9984
		}
	],
	"buffers":[
		{
			"byteLength":235024,
			"uri":"CarFrame1.bin"
		}
	]
}
