{
	"asset":{
		"generator":"Khronos glTF Blender I/O v4.5.47",
		"version":"2.0"
	},
	"scene":0,
	"scenes":[
		{
			"name":"Scene",
			"nodes":[
				7
			]
		}
	],
	"nodes":[
		{
			"mesh":0,
			"name":"BackLeftWheel_Car1",
			"rotation":[
				0,
				0,
				0.7071068286895752,
				0.7071068286895752
			],
			"scale":[
				0.1780407875776291,
				0.1780407875776291,
				0.1780407875776291
			],
			"translation":[
				0.28648650646209717,
				0.8550992012023926,
				-2.160315990447998
			]
		},
		{
			"mesh":1,
			"name":"BackRightWheel_Car1",
			"rotation":[
				0,
				0,
				0.7071068286895752,
				0.7071068286895752
			],
			"scale":[
				0.1780407875776291,
				0.1780407875776291,
				0.1780407875776291
			],
			"translation":[
				0.2864863872528076,
				-0.8524130582809448,
				-2.1603169441223145
			]
		},
		{
			"mesh":2,
			"name":"Driver1",
			"rotation":[
				0,
				0,
				0.7071068286895752,
				0.7071068286895752
			],
			"scale":[
				0.1575908362865448,
				0.15161922574043274,
				0.16398297250270844
			],
			"translation":[
				-0.7463963031768799,
				-0.01633702777326107,
				-0.5385215282440186
			]
		},
		{
			"mesh":3,
			"name":"FrontLeftWheel_Car1",
			"rotation":[
				0,
				0,
				0.7071068286895752,
				0.7071068286895752
			],
			"scale":[
				0.1780407875776291,
				0.1780407875776291,
				0.1780407875776291
			],
			"translation":[
				0.28648650646209717,
				0.9050971269607544,
				1.1333680152893066
			]
		},
		{
			"mesh":4,
			"name":"FrontRightWheel_Car1",
			"rotation":[
				0,
				0,
				0.7071068286895752,
				0.7071068286895752
			],
			"scale":[
				0.1780407875776291,
				0.1780407875776291,
				0.1780407875776291
			],
			"translation":[
				0.2864863872528076,
				-0.9024152755737305,
				1.1333668231964111
			]
		},
		{
			"mesh":5,
			"name":"LeftDoor_Car1",
			"rotation":[
				0.706996738910675,
				0.7069966197013855,
				-0.012477179989218712,
				0.012477177195250988
			],
			"scale":[
				-0.0911802127957344,
				-0.1677035391330719,
				-0.15873673558235168
			],
			"translation":[
				0.004677490796893835,
				0.9055159091949463,
				0.1403304636478424
			]
		},
		{
			"mesh":6,
			"name":"RightDoor_Car1",
			"rotation":[
				0.02115792967379093,
				-0.02115792967379093,
				0.7067901492118835,
				0.7067902088165283
			],
			"scale":[
				0.0911802351474762,
				0.1677035391330719,
				0.15873676538467407
			],
			"translation":[
				0.004677353426814079,
				-0.9114295244216919,
				0.1403292715549469
			]
		},
		{
			"children":[
				0,
				1,
				2,
				3,
				4,
				5,
				6
			],
			"mesh":7,
			"name":"CarFrame1",
			"rotation":[
				0,
				0,
				-0.7071068286895752,
				0.7071068286895752
			],
			"scale":[
				0.2896496057510376,
				0.2896496057510376,
				0.2896496057510376
			]
		}
	],
	"materials":[
		{
			"doubleSided":true,
			"name":"colormap",
			"pbrMetallicRoughness":{
				"baseColorTexture":{
					"index":0
				},
				"metallicFactor":0,
				"roughnessFactor":0.5
			}
		}
	],
	"meshes":[
		{
			"name":"Cube.006",
			"primitives":[
				{
					"attributes":{
						"POSITION":0,
						"NORMAL":1,
						"TEXCOORD_0":2
					},
					"indices":3,
					"material":0
				}
			]
		},
		{
			"name":"Cube.005",
			"primitives":[
				{
					"attributes":{
						"POSITION":4,
						"NORMAL":5,
						"TEXCOORD_0":6
					},
					"indices":7,
					"material":0
				}
			]
		},
		{
			"name":"Sphere.001",
			"primitives":[
				{
					"attributes":{
						"POSITION":8,
						"NORMAL":9,
						"TEXCOORD_0":10
					},
					"indices":11,
					"material":0
				}
			]
		},
		{
			"name":"Cube.004",
			"primitives":[
				{
					"attributes":{
						"POSITION":12,
						"NORMAL":13,
						"TEXCOORD_0":14
					},
					"indices":3,
					"material":0
				}
			]
		},
		{
			"name":"Cube.011",
			"primitives":[
				{
					"attributes":{
						"POSITION":15,
						"NORMAL":16,
						"TEXCOORD_0":17
					},
					"indices":7,
					"material":0
				}
			]
		},
		{
			"name":"Cube.001",
			"primitives":[
				{
					"attributes":{
						"POSITION":18,
						"NORMAL":19,
						"TEXCOORD_0":20
					},
					"indices":21,
					"material":0
				}
			]
		},
		{
			"name":"Cube.003",
			"primitives":[
				{
					"attributes":{
						"POSITION":22,
						"NORMAL":23,
						"TEXCOORD_0":24
					},
					"indices":21,
					"material":0
				}
			]
		},
		{
			"name":"Cube.021",
			"primitives":[
				{
					"attributes":{
						"POSITION":25,
						"NORMAL":26,
						"TEXCOORD_0":27
					},
					"indices":28,
					"material":0
				}
			]
		}
	],
	"textures":[
		{
			"sampler":0,
			"source":0
		}
	],
	"images":[
		{
			"mimeType":"image/png",
			"name":"colormap",
			"uri":"Textures/colormap.png"
		}
	],
	"accessors":[
		{
			"bufferView":0,
			"componentType":5126,
			"count":416,
			"max":[
				0.5771899223327637,
				1.992504596710205,
				1.9925041198730469
			],
			"min":[
				-0.8038010597229004,
				-1.9925048351287842,
				-1.9925050735473633
			],
			"type":"VEC3"
		},
		{
			"bufferView":1,
			"componentType":5126,
			"count":416,
			"type":"VEC3"
		},
		{
			"bufferView":2,
			"componentType":5126,
			"count":416,
			"type":"VEC2"
		},
		{
			"bufferView":3,
			"componentType":5123,
			"count":1044,
			"type":"SCALAR"
		},
		{
			"bufferView":4,
			"componentType":5126,
			"count":407,
			"max":[
				0.8038010597229004,
				1.992504596710205,
				1.9925041198730469
			],
			"min":[
				-0.5771899223327637,
				-1.9925048351287842,
				-1.9925050735473633
			],
			"type":"VEC3"
		},
		{
			"bufferView":5,
			"componentType":5126,
			"count":407,
			"type":"VEC3"
		},
		{
			"bufferView":6,
			"componentType":5126,
			"count":407,
			"type":"VEC2"
		},
		{
			"bufferView":7,
			"componentType":5123,
			"count":1044,
			"type":"SCALAR"
		},
		{
			"bufferView":8,
			"componentType":5126,
			"count":904,
			"max":[
				2.864452838897705,
				0.8487942218780518,
				4.238769054412842
			],
			"min":[
				-2.864447593688965,
				-6.074397563934326,
				-0.9798825979232788
			],
			"type":"VEC3"
		},
		{
			"bufferView":9,
			"componentType":5126,
			"count":904,
			"type":"VEC3"
		},
		{
			"bufferView":10,
			"componentType":5126,
			"count":904,
			"type":"VEC2"
		},
		{
			"bufferView":11,
			"componentType":5123,
			"count":3120,
			"type":"SCALAR"
		},
		{
			"bufferView":12,
			"componentType":5126,
			"count":416,
			"max":[
				0.5771899223327637,
				1.992504596710205,
				1.9925041198730469
			],
			"min":[
				-0.8038010597229004,
				-1.9925048351287842,
				-1.9925050735473633
			],
			"type":"VEC3"
		},
		{
			"bufferView":13,
			"componentType":5126,
			"count":416,
			"type":"VEC3"
		},
		{
			"bufferView":14,
			"componentType":5126,
			"count":416,
			"type":"VEC2"
		},
		{
			"bufferView":15,
			"componentType":5126,
			"count":407,
			"max":[
				0.8038010597229004,
				1.992504596710205,
				1.9925041198730469
			],
			"min":[
				-0.5771899223327637,
				-1.9925048351287842,
				-1.9925050735473633
			],
			"type":"VEC3"
		},
		{
			"bufferView":16,
			"componentType":5126,
			"count":407,
			"type":"VEC3"
		},
		{
			"bufferView":17,
			"componentType":5126,
			"count":407,
			"type":"VEC2"
		},
		{
			"bufferView":18,
			"componentType":5126,
			"count":54,
			"max":[
				0.4466327428817749,
				2.710815906524658,
				1.008089542388916
			],
			"min":[
				-1.7020719051361084,
				-1.0220619440078735,
				-5.645276069641113
			],
			"type":"VEC3"
		},
		{
			"bufferView":19,
			"componentType":5126,
			"count":54,
			"type":"VEC3"
		},
		{
			"bufferView":20,
			"componentType":5126,
			"count":54,
			"type":"VEC2"
		},
		{
			"bufferView":21,
			"componentType":5123,
			"count":108,
			"type":"SCALAR"
		},
		{
			"bufferView":22,
			"componentType":5126,
			"count":54,
			"max":[
				0.4466327428817749,
				2.710815906524658,
				1.008089542388916
			],
			"min":[
				-1.7020719051361084,
				-1.0220619440078735,
				-5.645276069641113
			],
			"type":"VEC3"
		},
		{
			"bufferView":23,
			"componentType":5126,
			"count":54,
			"type":"VEC3"
		},
		{
			"bufferView":24,
			"componentType":5126,
			"count":54,
			"type":"VEC2"
		},
		{
			"bufferView":25,
			"componentType":5126,
			"count":3815,
			"max":[
				0.43715113401412964,
				1.1337896585464478,
				2.136376142501831
			],
			"min":[
				-0.8239551186561584,
				-1.1394282579421997,
				-3.2543416023254395
			],
			"type":"VEC3"
		},
		{
			"bufferView":26,
			"componentType":5126,
			"count":3815,
			"type":"VEC3"
		},
		{
			"bufferView":27,
			"componentType":5126,
			"count":3815,
			"type":"VEC2"
		},
		{
			"bufferView":28,
			"componentType":5123,
			"count":8700,
			"type":"SCALAR"
		}
	],
	"bufferViews":[
		{
			"buffer":0,
			"byteLength":4992,
			"byteOffset":0,
			"target":34962
		},
		{
			"buffer":0,
			"byteLength":4992,
			"byteOffset":4992,
			"target":34962
		},
		{
			"buffer":0,
			"byteLength":3328,
			"byteOffset":9984,
			"target":34962
		},
		{
			"buffer":0,
			"byteLength":2088,
			"byteOffset":13312,
			"target":34963
		},
		{
			"buffer":0,
			"byteLength":4884,
			"byteOffset":15400,
			"target":34962
		},
		{
			"buffer":0,
			"byteLength":4884,
			"byteOffset":20284,
			"target":34962
		},
		{
			"buffer":0,
			"byteLength":3256,
			"byteOffset":25168,
			"target":34962
		},
		{
			"buffer":0,
			"byteLength":2088,
			"byteOffset":28424,
			"target":34963
		},
		{
			"buffer":0,
			"byteLength":10848,
			"byteOffset":30512,
			"target":34962
		},
		{
			"buffer":0,
			"byteLength":10848,
			"byteOffset":41360,
			"target":34962
		},
		{
			"buffer":0,
			"byteLength":7232,
			"byteOffset":52208,
			"target":34962
		},
		{
			"buffer":0,
			"byteLength":6240,
			"byteOffset":59440,
			"target":34963
		},
		{
			"buffer":0,
			"byteLength":4992,
			"byteOffset":65680,
			"target":34962
		},
		{
			"buffer":0,
			"byteLength":4992,
			"byteOffset":70672,
			"target":34962
		},
		{
			"buffer":0,
			"byteLength":3328,
			"byteOffset":75664,
			"target":34962
		},
		{
			"buffer":0,
			"byteLength":4884,
			"byteOffset":78992,
			"target":34962
		},
		{
			"buffer":0,
			"byteLength":4884,
			"byteOffset":83876,
			"target":34962
		},
		{
			"buffer":0,
			"byteLength":3256,
			"byteOffset":88760,
			"target":34962
		},
		{
			"buffer":0,
			"byteLength":648,
			"byteOffset":92016,
			"target":34962
		},
		{
			"buffer":0,
			"byteLength":648,
			"byteOffset":92664,
			"target":34962
		},
		{
			"buffer":0,
			"byteLength":432,
			"byteOffset":93312,
			"target":34962
		},
		{
			"buffer":0,
			"byteLength":216,
			"byteOffset":93744,
			"target":34963
		},
		{
			"buffer":0,
			"byteLength":648,
			"byteOffset":93960,
			"target":34962
		},
		{
			"buffer":0,
			"byteLength":648,
			"byteOffset":94608,
			"target":34962
		},
		{
			"buffer":0,
			"byteLength":432,
			"byteOffset":95256,
			"target":34962
		},
		{
			"buffer":0,
			"byteLength":45780,
			"byteOffset":95688,
			"target":34962
		},
		{
			"buffer":0,
			"byteLength":45780,
			"byteOffset":141468,
			"target":34962
		},
		{
			"buffer":0,
			"byteLength":30520,
			"byteOffset":187248,
			"target":34962
		},
		{
			"buffer":0,
			"byteLength":17400,
			"byteOffset":217768,
			"target":34963
		}
	],
	"samplers":[
		{
			"magFilter":9729,
			"minFilter":9987
		}
	],
	"buffers":[
		{
			"byteLength":235168,
			"uri":"CarFrame1.bin"
		}
	]
}
