{
	"asset":{
		"generator":"Khronos glTF Blender I/O v4.5.47",
		"version":"2.0"
	},
	"extensionsUsed":[
		"KHR_materials_specular"
	],
	"scene":0,
	"scenes":[
		{
			"name":"Scene",
			"nodes":[
				0
			]
		}
	],
	"nodes":[
		{
			"mesh":0,
			"name":"roadStraightsmallwide",
			"rotation":[
				0,
				-0.7071068286895752,
				0.7071068286895752,
				1.99496057007309e-07
			]
		}
	],
	"materials":[
		{
			"doubleSided":true,
			"extensions":{
				"KHR_materials_specular":{
					"specularColorFactor":[
						0.4000000059604645,
						0.4000000059604645,
						0.4000000059604645
					]
				}
			},
			"name":"Curb",
			"pbrMetallicRoughness":{
				"baseColorFactor":[
					0.9450979828834534,
					0.9490196108818054,
					0.9647058844566345,
					1
				],
				"metallicFactor":0,
				"roughnessFactor":0.5527864098548889
			}
		},
		{
			"doubleSided":true,
			"extensions":{
				"KHR_materials_specular":{
					"specularColorFactor":[
						0.4000000059604645,
						0.4000000059604645,
						0.4000000059604645
					]
				}
			},
			"name":"PinkGrass",
			"pbrMetallicRoughness":{
				"baseColorFactor":[
					0.4019641876220703,
					0.007295854389667511,
					0.26789525151252747,
					1
				],
				"metallicFactor":0,
				"roughnessFactor":0.5527864098548889
			}
		},
		{
			"doubleSided":true,
			"extensions":{
				"KHR_materials_specular":{
					"specularColorFactor":[
						0.4000000059604645,
						0.4000000059604645,
						0.4000000059604645
					]
				}
			},
			"name":"Road",
			"pbrMetallicRoughness":{
				"baseColorFactor":[
					0.2663537561893463,
					0.26635587215423584,
					0.2663556933403015,
					1
				],
				"metallicFactor":0
			}
		}
	],
	"meshes":[
		{
			"name":"roadStraightsmallwide-col",
			"primitives":[
				{
					"attributes":{
						"POSITION":0,
						"NORMAL":1,
						"TEXCOORD_0":2
					},
					"indices":3,
					"material":0
				},
				{
					"attributes":{
						"POSITION":4,
						"NORMAL":5,
						"TEXCOORD_0":6
					},
					"indices":7,
					"material":1
				},
				{
					"attributes":{
						"POSITION":8,
						"NORMAL":9,
						"TEXCOORD_0":10
					},
					"indices":11,
					"material":2
				}
			]
		}
	],
	"accessors":[
		{
			"bufferView":0,
			"componentType":5126,
			"count":24,
			"max":[
				28.76755714416504,
				-0.008508309721946716,
				-0.10000010579824448
			],
			"min":[
				1.2290313243865967,
				-15.008514404296875,
				-0.3000011742115021
			],
			"type":"VEC3"
		},
		{
			"bufferView":1,
			"componentType":5126,
			"count":24,
			"type":"VEC3"
		},
		{
			"bufferView":2,
			"componentType":5126,
			"count":24,
			"type":"VEC2"
		},
		{
			"bufferView":3,
			"componentType":5123,
			"count":36,
			"type":"SCALAR"
		},
		{
			"bufferView":4,
			"componentType":5126,
			"count":8,
			"max":[
				29.99234962463379,
				-0.008508309721946716,
				-0.10000010579824448
			],
			"min":[
				0.004240274429321289,
				-15.008514404296875,
				-0.10000117868185043
			],
			"type":"VEC3"
		},
		{
			"bufferView":5,
			"componentType":5126,
			"count":8,
			"type":"VEC3"
		},
		{
			"bufferView":6,
			"componentType":5126,
			"count":8,
			"type":"VEC2"
		},
		{
			"bufferView":7,
			"componentType":5123,
			"count":12,
			"type":"SCALAR"
		},
		{
			"bufferView":8,
			"componentType":5126,
			"count":6,
			"max":[
				27.669376373291016,
				-0.008508309721946716,
				-0.20000003278255463
			],
			"min":[
				2.3272135257720947,
				-15.008514404296875,
				-0.20000116527080536
			],
			"type":"VEC3"
		},
		{
			"bufferView":9,
			"componentType":5126,
			"count":6,
			"type":"VEC3"
		},
		{
			"bufferView":10,
			"componentType":5126,
			"count":6,
			"type":"VEC2"
		},
		{
			"bufferView":11,
			"componentType":5123,
			"count":12,
			"type":"SCALAR"
		}
	],
	"bufferViews":[
		{
			"buffer":0,
			"byteLength":288,
			"byteOffset":0,
			"target":34962
		},
		{
			"buffer":0,
			"byteLength":288,
			"byteOffset":288,
			"target":34962
		},
		{
			"buffer":0,
			"byteLength":192,
			"byteOffset":576,
			"target":34962
		},
		{
			"buffer":0,
			"byteLength":72,
			"byteOffset":768,
			"target":34963
		},
		{
			"buffer":0,
			"byteLength":96,
			"byteOffset":840,
			"target":34962
		},
		{
			"buffer":0,
			"byteLength":96,
			"byteOffset":936,
			"target":34962
		},
		{
			"buffer":0,
			"byteLength":64,
			"byteOffset":1032,
			"target":34962
		},
		{
			"buffer":0,
			"byteLength":24,
			"byteOffset":1096,
			"target":34963
		},
		{
			"buffer":0,
			"byteLength":72,
			"byteOffset":1120,
			"target":34962
		},
		{
			"buffer":0,
			"byteLength":72,
			"byteOffset":1192,
			"target":34962
		},
		{
			"buffer":0,
			"byteLength":48,
			"byteOffset":1264,
			"target":34962
		},
		{
			"buffer":0,
			"byteLength":24,
			"byteOffset":1312,
			"target":34963
		}
	],
	"buffers":[
		{
			"byteLength":1336,
			"uri":"roadStraightsmallwide.bin"
		}
	]
}
