{
	"asset":{
		"generator":"Khronos glTF Blender I/O v4.5.47",
		"version":"2.0"
	},
	"extensionsUsed":[
		"KHR_materials_specular"
	],
	"scene":0,
	"scenes":[
		{
			"name":"Scene",
			"nodes":[
				0
			]
		}
	],
	"nodes":[
		{
			"mesh":0,
			"name":"roadRampLongCurvedWall",
			"rotation":[
				0.7071068286895752,
				0,
				0,
				0.7071068286895752
			]
		}
	],
	"materials":[
		{
			"doubleSided":true,
			"extensions":{
				"KHR_materials_specular":{
					"specularColorFactor":[
						0.4000000059604645,
						0.4000000059604645,
						0.4000000059604645
					]
				}
			},
			"name":"PinkGrass",
			"pbrMetallicRoughness":{
				"baseColorFactor":[
					0.4019641876220703,
					0.007295854389667511,
					0.26789525151252747,
					1
				],
				"metallicFactor":0,
				"roughnessFactor":0.5527864098548889
			}
		},
		{
			"doubleSided":true,
			"extensions":{
				"KHR_materials_specular":{
					"specularColorFactor":[
						0.4000000059604645,
						0.4000000059604645,
						0.4000000059604645
					]
				}
			},
			"name":"Curb",
			"pbrMetallicRoughness":{
				"baseColorFactor":[
					0.9450979828834534,
					0.9490196108818054,
					0.9647058844566345,
					1
				],
				"metallicFactor":0,
				"roughnessFactor":0.5527864098548889
			}
		},
		{
			"doubleSided":true,
			"extensions":{
				"KHR_materials_specular":{
					"specularColorFactor":[
						0.4000000059604645,
						0.4000000059604645,
						0.4000000059604645
					]
				}
			},
			"name":"Road",
			"pbrMetallicRoughness":{
				"baseColorFactor":[
					0.2663537561893463,
					0.26635587215423584,
					0.2663556933403015,
					1
				],
				"metallicFactor":0
			}
		}
	],
	"meshes":[
		{
			"name":"roadRampLongCurvedWall-col",
			"primitives":[
				{
					"attributes":{
						"POSITION":0,
						"NORMAL":1,
						"TEXCOORD_0":2
					},
					"indices":3,
					"material":0
				},
				{
					"attributes":{
						"POSITION":4,
						"NORMAL":5,
						"TEXCOORD_0":6
					},
					"indices":7,
					"material":1
				},
				{
					"attributes":{
						"POSITION":8,
						"NORMAL":9,
						"TEXCOORD_0":10
					},
					"indices":11,
					"material":2
				}
			]
		}
	],
	"accessors":[
		{
			"bufferView":0,
			"componentType":5126,
			"count":249,
			"max":[
				0,
				30,
				0
			],
			"min":[
				-15,
				0,
				-5.199999809265137
			],
			"type":"VEC3"
		},
		{
			"bufferView":1,
			"componentType":5126,
			"count":249,
			"type":"VEC3"
		},
		{
			"bufferView":2,
			"componentType":5126,
			"count":249,
			"type":"VEC2"
		},
		{
			"bufferView":3,
			"componentType":5123,
			"count":453,
			"type":"SCALAR"
		},
		{
			"bufferView":4,
			"componentType":5126,
			"count":377,
			"max":[
				-1.2247892618179321,
				30,
				0
			],
			"min":[
				-13.775209426879883,
				0,
				-5.199999809265137
			],
			"type":"VEC3"
		},
		{
			"bufferView":5,
			"componentType":5126,
			"count":377,
			"type":"VEC3"
		},
		{
			"bufferView":6,
			"componentType":5126,
			"count":377,
			"type":"VEC2"
		},
		{
			"bufferView":7,
			"componentType":5123,
			"count":831,
			"type":"SCALAR"
		},
		{
			"bufferView":8,
			"componentType":5126,
			"count":92,
			"max":[
				-2.3229734897613525,
				30,
				-0.09999998658895493
			],
			"min":[
				-12.677026748657227,
				0,
				-5.099999904632568
			],
			"type":"VEC3"
		},
		{
			"bufferView":9,
			"componentType":5126,
			"count":92,
			"type":"VEC3"
		},
		{
			"bufferView":10,
			"componentType":5126,
			"count":92,
			"type":"VEC2"
		},
		{
			"bufferView":11,
			"componentType":5123,
			"count":138,
			"type":"SCALAR"
		}
	],
	"bufferViews":[
		{
			"buffer":0,
			"byteLength":2988,
			"byteOffset":0,
			"target":34962
		},
		{
			"buffer":0,
			"byteLength":2988,
			"byteOffset":2988,
			"target":34962
		},
		{
			"buffer":0,
			"byteLength":1992,
			"byteOffset":5976,
			"target":34962
		},
		{
			"buffer":0,
			"byteLength":906,
			"byteOffset":7968,
			"target":34963
		},
		{
			"buffer":0,
			"byteLength":4524,
			"byteOffset":8876,
			"target":34962
		},
		{
			"buffer":0,
			"byteLength":4524,
			"byteOffset":13400,
			"target":34962
		},
		{
			"buffer":0,
			"byteLength":3016,
			"byteOffset":17924,
			"target":34962
		},
		{
			"buffer":0,
			"byteLength":1662,
			"byteOffset":20940,
			"target":34963
		},
		{
			"buffer":0,
			"byteLength":1104,
			"byteOffset":22604,
			"target":34962
		},
		{
			"buffer":0,
			"byteLength":1104,
			"byteOffset":23708,
			"target":34962
		},
		{
			"buffer":0,
			"byteLength":736,
			"byteOffset":24812,
			"target":34962
		},
		{
			"buffer":0,
			"byteLength":276,
			"byteOffset":25548,
			"target":34963
		}
	],
	"buffers":[
		{
			"byteLength":25824,
			"uri":"roadRampLongCurvedWall.bin"
		}
	]
}
